<svg id="Capa_1" enable-background="new 0 0 512 512" height="512" viewBox="0 0 512 512" width="512" xmlns="http://www.w3.org/2000/svg"><g><g><path d="m31.37 98.707h449.26v371.98h-449.26z" fill="#db5b6f"/><path d="m31.37 98.707h32.047v371.98h-32.047z" fill="#d54653"/><g fill="#d3effb"><path d="m480.63 267.807v190.07h-56.76c-7.52 0-14.31-3.11-19.15-8.12-4.65-4.79-7.51-11.33-7.51-18.54v-136.75c0-14.72 11.94-26.66 26.66-26.66z"/><path d="m114.79 294.467v136.75c0 14.73-11.94 26.66-26.66 26.66h-56.76v-190.07h56.76c14.72 0 26.66 11.94 26.66 26.66z"/></g><path d="m114.79 294.467v16.71l-83.42 83.42v-91.4l35.39-35.39h21.37c14.72 0 26.66 11.94 26.66 26.66z" fill="#ecf9f9"/><path d="m480.63 310.087v63.76l-75.91 75.91c-4.65-4.79-7.51-11.33-7.51-18.54v-37.71z" fill="#ecf9f9"/><path d="m483.606 457.878h-455.212c-11.54 0-20.894 9.355-20.894 20.894 0 11.54 9.355 20.894 20.894 20.894h455.211c11.54 0 20.894-9.355 20.894-20.894.001-11.539-9.354-20.894-20.893-20.894z" fill="#95d6a4"/><path d="m57.89 493.542c3.79 3.78 9.01 6.12 14.78 6.12h-44.28c-5.77 0-10.99-2.34-14.77-6.12s-6.12-9-6.12-14.77c0-11.54 9.35-20.9 20.89-20.9h44.28c-11.54 0-20.9 9.36-20.9 20.9 0 5.77 2.34 10.99 6.12 14.77z" fill="#78c2a4"/><path d="m31.37 98.707h449.26v33.71h-449.26z" fill="#d54653"/><path d="m483.606 69.729h-455.212c-11.54 0-20.894 9.355-20.894 20.894 0 11.54 9.355 20.894 20.894 20.894h455.211c11.54 0 20.894-9.355 20.894-20.894.001-11.54-9.354-20.894-20.893-20.894z" fill="#407093"/><path d="m57.89 105.393c3.79 3.78 9.01 6.12 14.78 6.12h-44.28c-5.77 0-10.99-2.34-14.77-6.12s-6.12-9-6.12-14.77c0-11.54 9.35-20.9 20.89-20.9h44.28c-11.54 0-20.9 9.36-20.9 20.9 0 5.77 2.34 10.99 6.12 14.77z" fill="#365e7d"/><path d="m353.56 142.687c-1.45 15.06-13.78 26.79-28.89 27.61-45.78 2.48-91.56 2.48-137.34 0-15.11-.82-27.44-12.55-28.89-27.61-1.41-14.66-2-29.32-1.77-43.98h198.66c.23 14.66-.36 29.32-1.77 43.98z" fill="#d54653"/><path d="m324.674 145.029c-45.783 2.486-91.566 2.486-137.349 0-15.108-.82-27.437-12.549-28.888-27.609-2.428-25.207-2.428-50.414 0-75.621 1.451-15.06 13.78-26.789 28.888-27.609 45.783-2.486 91.566-2.486 137.349 0 15.108.82 27.437 12.549 28.888 27.609 2.428 25.207 2.428 50.414 0 75.621-1.45 15.06-13.78 26.788-28.888 27.609z" fill="#ececec"/><path d="m363.29 294.467v163.41h-214.58v-163.41c0-14.72 11.94-26.66 26.66-26.66h161.26c3.88 0 7.57.83 10.9 2.33 9.29 4.16 15.76 13.49 15.76 24.33z" fill="#d3effb"/><path d="m347.53 270.137-187.74 187.74h-11.08v-52.69l137.38-137.38h50.54c3.88 0 7.57.83 10.9 2.33z" fill="#ecf9f9"/><path d="m363.29 302.987v63.77l-91.12 91.12h-63.77z" fill="#ecf9f9"/><g><path d="m299.969 76.777c-3.605 12.647-7.735 25.528-12.009 38.555-1.004 3.06-3.799 5.194-7.017 5.325-16.629.679-33.257.679-49.886 0-3.218-.131-6.013-2.265-7.017-5.325-4.274-13.027-8.404-25.908-12.009-38.555-1.396-4.896 2.211-9.802 7.302-9.891 24.445-.426 48.889-.426 73.334 0 5.09.088 8.698 4.994 7.302 9.891z" fill="#80b4fb"/></g></g><g><path d="m488.13 450.738v-332.085c13.513-2.172 23.87-13.91 23.87-28.026 0-7.588-2.954-14.72-8.317-20.083-5.362-5.363-12.491-8.317-20.073-8.317h-121.116c-.305-7.066-.789-14.121-1.466-21.147-1.79-18.584-17.244-33.364-35.947-34.379-45.839-2.489-92.323-2.489-138.162 0-18.703 1.015-34.157 15.795-35.947 34.379-.677 7.027-1.161 14.081-1.466 21.147h-121.116c-15.654-.001-28.39 12.739-28.39 28.399 0 7.582 2.954 14.711 8.317 20.073 4.281 4.281 9.689 7.021 15.553 7.955v332.086c-13.513 2.173-23.87 13.915-23.87 28.036 0 7.582 2.954 14.71 8.317 20.073 5.362 5.363 12.491 8.317 20.073 8.317h369.32c4.142 0 7.5-3.358 7.5-7.5s-3.358-7.5-7.5-7.5h-369.32c-3.575 0-6.937-1.393-9.467-3.923s-3.923-5.892-3.923-9.467c0-7.389 6.007-13.4 13.39-13.4h455.22c3.575 0 6.937 1.393 9.467 3.924 2.53 2.53 3.923 5.895 3.923 9.477 0 7.383-6.007 13.39-13.39 13.39h-55.9c-4.142 0-7.5 3.358-7.5 7.5s3.358 7.5 7.5 7.5h55.9c15.654 0 28.39-12.736 28.39-28.39 0-7.588-2.954-14.72-8.317-20.083-4.281-4.283-9.689-7.023-15.553-7.956zm-449.26-175.431h49.26c10.565 0 19.16 8.595 19.16 19.16v136.75c0 10.56-8.587 19.151-19.146 19.159h-49.274zm316.918 175.069h-92.288v-175.069h73.13c10.563 0 19.158 8.594 19.158 19.158zm-107.288 0h-92.288v-155.911c0-10.564 8.594-19.158 19.158-19.158h73.13zm156.21-19.159v-136.75c0-10.565 8.595-19.16 19.16-19.16h49.26v175.069h-49.274c-10.559-.008-19.146-8.599-19.146-19.159zm78.9-353.99c3.575 0 6.937 1.393 9.467 3.923s3.923 5.895 3.923 9.477c0 7.383-6.007 13.39-13.39 13.39h-121.476c.541-8.913.779-17.852.727-26.79zm-295.878-55.548c22.649-1.23 45.458-1.844 68.267-1.844s45.619.615 68.268 1.844c11.36.616 20.745 9.575 21.83 20.839 2.371 24.612 2.371 49.571 0 74.183-1.085 11.263-10.47 20.222-21.83 20.839-45.299 2.459-91.236 2.459-136.535 0-11.36-.617-20.745-9.576-21.83-20.839-2.371-24.612-2.371-49.571 0-74.183 1.086-11.264 10.471-20.223 21.83-20.839zm-172.732 68.947c0-7.389 6.007-13.4 13.39-13.4h120.749c-.053 8.937.186 17.877.727 26.79h-20.076c-4.142 0-7.5 3.358-7.5 7.5s3.358 7.5 7.5 7.5h21.287c2.185 18.168 17.435 32.502 35.842 33.502 22.919 1.244 46 1.866 69.081 1.866s46.162-.622 69.081-1.866c18.407-1 33.656-15.333 35.842-33.501h112.207v141.29h-49.26c-18.836 0-34.16 15.324-34.16 34.16v136.75c0 7.096 2.176 13.692 5.894 19.159h-24.816v-155.911c0-18.835-15.323-34.158-34.158-34.158h-161.26c-18.834 0-34.158 15.323-34.158 34.158v155.911h-24.816c3.718-5.467 5.894-12.064 5.894-19.159v-136.75c0-18.836-15.324-34.16-34.16-34.16h-49.26v-141.291h60.92c4.142 0 7.5-3.358 7.5-7.5s-3.358-7.5-7.5-7.5h-71.4c-3.575 0-6.937-1.393-9.467-3.924-2.53-2.529-3.923-5.891-3.923-9.466z"/><path d="m216.914 117.669c1.972 6.011 7.533 10.224 13.837 10.481 8.377.342 16.813.513 25.249.513s16.872-.171 25.25-.513c6.304-.258 11.865-4.47 13.837-10.481 4.059-12.371 8.333-25.638 12.095-38.837 1.312-4.601.43-9.444-2.418-13.287-2.84-3.831-7.201-6.076-11.965-6.159-4.142-.072-8.305-.115-12.463-.163-.791-3.106-1.582-6.202-2.365-9.259-1.172-4.578-2.347-9.164-3.509-13.755-1.017-4.015-5.092-6.447-9.112-5.429-4.015 1.017-6.446 5.096-5.429 9.112 1.166 4.604 2.344 9.203 3.52 13.794.459 1.793.923 3.606 1.386 5.419-5.884-.024-11.765-.024-17.649 0 .468-1.831.936-3.662 1.4-5.473 1.171-4.573 2.344-9.154 3.506-13.74 1.017-4.015-1.414-8.095-5.429-9.112-4.018-1.017-8.095 1.414-9.112 5.429-1.158 4.573-2.328 9.141-3.496 13.701-.787 3.075-1.583 6.189-2.379 9.313-4.159.048-8.321.09-12.463.163-4.765.083-9.126 2.328-11.966 6.159-2.848 3.843-3.729 8.686-2.418 13.287 3.76 13.199 8.034 26.467 12.093 38.837zm2.373-43.191c.068-.092.121-.093.177-.094 2.798-.049 5.614-.072 8.42-.11-.334 1.354-.673 2.712-1.001 4.059-.981 4.024 1.487 8.082 5.511 9.062.597.145 1.193.215 1.781.215 3.378 0 6.446-2.298 7.281-5.726.627-2.571 1.269-5.163 1.917-7.762 4.208-.025 8.415-.055 12.626-.055s8.419.029 12.626.055c.649 2.599 1.291 5.191 1.918 7.763.835 3.428 3.902 5.726 7.281 5.726.587 0 1.185-.07 1.782-.215 4.024-.981 6.492-5.038 5.511-9.062-.328-1.347-.666-2.705-1.001-4.059 2.807.038 5.622.061 8.42.11.056.001.108.002.176.094.081.11.059.187.043.243-3.691 12.949-7.911 26.047-11.922 38.273-.031.095-.114.166-.197.169-16.348.667-32.926.667-49.273 0-.083-.003-.167-.075-.197-.17-4.011-12.226-8.231-25.324-11.922-38.273-.016-.056-.038-.133.043-.243z"/></g></g></svg>