<svg height="512" viewBox="0 0 512 512" width="512" xmlns="http://www.w3.org/2000/svg"><g id="filled_outline" data-name="filled outline"><path d="m24 24h464v464h-464z" fill="#fbb540"/><path d="m24 64v96a32 32 0 0 0 32 32 32 32 0 0 0 32-32 32 32 0 0 0 32 32 32 32 0 0 0 32-32 32 32 0 0 0 32 32 32 32 0 0 0 32-32 32 32 0 0 0 32 32 32 32 0 0 0 32-32v-96z" fill="#ea9d2d"/><path d="m216 56h64a0 0 0 0 1 0 0v96a32 32 0 0 1 -32 32 32 32 0 0 1 -32-32v-96a0 0 0 0 1 0 0z" fill="#fdfefb"/><path d="m152 56h64a0 0 0 0 1 0 0v96a32 32 0 0 1 -32 32 32 32 0 0 1 -32-32v-96a0 0 0 0 1 0 0z" fill="#683b0d"/><path d="m88 56h64a0 0 0 0 1 0 0v96a32 32 0 0 1 -32 32 32 32 0 0 1 -32-32v-96a0 0 0 0 1 0 0z" fill="#fdfefb"/><path d="m24 56h64a0 0 0 0 1 0 0v96a32 32 0 0 1 -32 32 32 32 0 0 1 -32-32v-96a0 0 0 0 1 0 0z" fill="#683b0d"/><path d="m24 24h464v32h-464z" fill="#683b0d"/><path d="m24 40h464v16h-464z" fill="#55300b"/><path d="m456 124a28 28 0 0 0 -55.711-4h-32.578a28 28 0 1 0 -50.684 20 28 28 0 1 0 48.273 28h37.4a28 28 0 1 0 48.275-28 27.864 27.864 0 0 0 5.025-16z" fill="#ea9d2d"/><path d="m24 216h136v272h-136z" fill="#a8a8a8"/><path d="m32 224h128v264h-128z" fill="#cbcbcb"/><path d="m160 216h296v240h-296z" fill="#c38325"/><path d="m56 248h72v136h-72z" fill="#fbfbf9"/><path d="m56 416h72v40h-72z" fill="#fbfbf9"/><path d="m200 456h112v-144l-2.046-16.371a54.374 54.374 0 0 0 -53.954-47.629 54.374 54.374 0 0 0 -53.954 47.629l-2.046 16.371z" fill="#eaeae8"/><circle cx="240" cy="312" fill="#683b0d" r="8"/><circle cx="272" cy="312" fill="#683b0d" r="8"/><path d="m280 368a33.7 33.7 0 0 1 -24-9.931 33.7 33.7 0 0 1 -24 9.931 8 8 0 0 1 0-16 17.791 17.791 0 0 0 16-9.889l.845-1.69a8 8 0 0 1 14.31 0l.845 1.689a17.79 17.79 0 0 0 16 9.89 8 8 0 0 1 0 16z" fill="#cbcbcb"/><path d="m246.059 342.686 6.977 7.7a4 4 0 0 0 5.928 0l6.977-7.7a4 4 0 0 0 -2.964-6.686h-13.954a4 4 0 0 0 -2.964 6.686z" fill="#683b0d"/><path d="m224 264v26a30 30 0 0 1 -30 30h-2v-56a16 16 0 0 1 16-16 16 16 0 0 1 16 16z" fill="#683b0d"/><path d="m288 264v26a30 30 0 0 0 30 30h2v-56a16 16 0 0 0 -16-16 16 16 0 0 0 -16 16z" fill="#683b0d"/><path d="m264 456v-9.028a14.988 14.988 0 0 1 14.972-14.972h1.028a8 8 0 0 0 8-8v-16a8 8 0 0 0 -16 0v8.792a30.985 30.985 0 0 0 -16 9.436 30.985 30.985 0 0 0 -16-9.436v-8.792a8 8 0 0 0 -16 0v16a8 8 0 0 0 8 8h1.028a14.988 14.988 0 0 1 14.972 14.972v9.028z" fill="#cbcbcb"/><path d="m392 368a80 80 0 0 1 32 64v24h-32z" fill="#eaeae8"/><path d="m280 456h112v-136l-40 24-40-24v80a32 32 0 0 0 -32 32z" fill="#fd9226"/><g fill="#dc651e"><circle cx="336" cy="376" r="8"/><circle cx="368" cy="376" r="8"/><path d="m342.828 400.485 6.344 6.343a4 4 0 0 0 5.656 0l6.344-6.343a4 4 0 0 0 -2.829-6.828h-12.686a4 4 0 0 0 -2.829 6.828z"/><path d="m320 456v-8a8.009 8.009 0 0 0 -8-8 8 8 0 0 1 0-16 24.028 24.028 0 0 1 24 24v8z"/><path d="m352 456v-24a8 8 0 0 1 16 0v24z"/></g><path d="m160 216h296v8h-296z" fill="#97661d"/><path d="m44 332h240v8h-240z" fill="#97661d" transform="matrix(0 1 -1 0 500 172)"/><path d="m160 456h8v32h-8z" fill="#ea9d2d"/><path d="m456 116a28 28 0 0 0 -55.711-4h-32.578a28 28 0 1 0 -50.684 20 28 28 0 1 0 48.273 28h37.4a28 28 0 1 0 48.275-28 27.864 27.864 0 0 0 5.025-16z" fill="#fdfefb"/><path d="m488 16h-464a8 8 0 0 0 -8 8v464a8 8 0 0 0 8 8h464a8 8 0 0 0 8-8v-464a8 8 0 0 0 -8-8zm-456 16h448v16h-448zm176 120a24 24 0 0 1 -48 0v-88h48zm-64 0a24 24 0 0 1 -48 0v-88h48zm-64 0a24 24 0 0 1 -48 0v-88h48zm144-88h48v88a24 24 0 0 1 -48 0zm-192 416v-256h120v256zm336-32v-16a8 8 0 0 0 -16 0v16h-16a24.028 24.028 0 0 0 -24-24 8 8 0 0 0 0 16 8.009 8.009 0 0 1 8 8h-32v-16a24.027 24.027 0 0 1 24-24 8 8 0 0 0 8-8v-65.871l27.884 16.731a8 8 0 0 0 8.232 0l27.884-16.731v113.871zm-104 0v-1.028a14.982 14.982 0 0 1 8-13.239v14.267zm-56 0v-122.684a38.053 38.053 0 0 0 24-35.316v-26c0-.432-.013-.861-.035-1.287a46.384 46.384 0 0 1 48.07 0c-.022.426-.035.855-.035 1.287v26a38.053 38.053 0 0 0 24 35.316v67.484a39.907 39.907 0 0 0 -18.571 9.332 7.991 7.991 0 0 0 -13.429 5.868v8.792a30.985 30.985 0 0 0 -16 9.436 30.985 30.985 0 0 0 -16-9.436v-8.792a8 8 0 0 0 -16 0v16a8 8 0 0 0 8 8h1.028a14.988 14.988 0 0 1 14.972 14.972v1.028zm-8-136.832v-47.168a8 8 0 0 1 16 0v26a22.038 22.038 0 0 1 -16 21.168zm112 0a22.038 22.038 0 0 1 -16-21.168v-26a8 8 0 0 1 16 0zm88 75.615a72.357 72.357 0 0 1 16 45.217v16h-16zm0-22.651v-44.132a8 8 0 0 0 -12.116-6.86l-35.884 21.53-24.013-14.407c0-.088.013-.174.013-.263v-56a23.988 23.988 0 0 0 -41.722-16.166 62.428 62.428 0 0 0 -60.556 0 23.988 23.988 0 0 0 -41.722 16.166v56a8 8 0 0 0 8 8v120h-24v-224h280v224h-16v-16a88.451 88.451 0 0 0 -32-67.868zm-232 115.868v-16h288a8 8 0 0 0 8-8v-240a8 8 0 0 0 -8-8h-424v-24.022a39.94 39.94 0 0 0 56-8.006 39.958 39.958 0 0 0 64 0 39.958 39.958 0 0 0 64 0 39.986 39.986 0 0 0 72-23.972v-88h192v416z"/><path d="m428 80a36.21 36.21 0 0 0 -33.937 24h-20.126a36 36 0 0 0 -69.937 12 35.78 35.78 0 0 0 3.748 16 36 36 0 0 0 32.252 52 36.208 36.208 0 0 0 29.928-16h28.144a36 36 0 0 0 65.928-20 35.78 35.78 0 0 0 -3.748-16 36 36 0 0 0 -32.252-52zm16.412 56.578a19.994 19.994 0 0 1 -16.412 31.422 20.11 20.11 0 0 1 -18.076-11.433 8 8 0 0 0 -7.224-4.567h-37.4a8 8 0 0 0 -7.226 4.567 20 20 0 0 1 -38.074-8.567 19.865 19.865 0 0 1 3.588-11.422 8 8 0 0 0 0-9.156 19.994 19.994 0 0 1 16.412-31.422 20.079 20.079 0 0 1 19.792 17.133 8 8 0 0 0 7.919 6.867h32.578a8 8 0 0 0 7.919-6.867 20 20 0 0 1 39.792 2.867 19.865 19.865 0 0 1 -3.588 11.422 8 8 0 0 0 0 9.156z"/><path d="m128 240h-72a8 8 0 0 0 -8 8v136a8 8 0 0 0 8 8h72a8 8 0 0 0 8-8v-136a8 8 0 0 0 -8-8zm-8 136h-56v-120h56z"/><path d="m128 408h-72a8 8 0 0 0 -8 8v40a8 8 0 0 0 8 8h72a8 8 0 0 0 8-8v-40a8 8 0 0 0 -8-8zm-8 40h-56v-24h56z"/><circle cx="240" cy="312" r="8"/><circle cx="336" cy="376" r="8"/><circle cx="368" cy="376" r="8"/><circle cx="272" cy="312" r="8"/><path d="m232 368a33.7 33.7 0 0 0 24-9.931 33.7 33.7 0 0 0 24 9.931 8 8 0 0 0 0-16 17.769 17.769 0 0 1 -15.044-8.226l.985-1.088a4 4 0 0 0 -2.964-6.686h-13.954a4 4 0 0 0 -2.964 6.686l.985 1.088a17.77 17.77 0 0 1 -15.044 8.226 8 8 0 0 0 0 16z"/><path d="m358.343 393.657h-12.686a4 4 0 0 0 -2.829 6.828l6.344 6.343a4 4 0 0 0 5.656 0l6.344-6.343a4 4 0 0 0 -2.829-6.828z"/></g></svg>