<svg height="488pt" viewBox="-9 0 487 488" width="488pt" xmlns="http://www.w3.org/2000/svg"><path d="m415.640625 484h-362.28125c-8.835937 0-16-7.164062-16-16v-378h394.285156v378c-.003906 8.835938-7.164062 16-16.003906 16zm0 0" fill="#f9cfcf"/><path d="m415.640625 488h-362.28125c-11.03125 0-20-8.972656-20-20v-378c0-2.207031 1.789063-4 4-4h394.285156c2.207031 0 4 1.792969 4 4v378c-.003906 11.027344-8.972656 20-20.003906 20zm-374.28125-394v374c0 6.617188 5.378906 12 12 12h362.285156c6.617188 0 12-5.382812 12-12v-374zm0 0" fill="#3762cc"/><path d="m438.6875 138h-408.375c-4.578125 0-8.289062-3.710938-8.289062-8.289062v-31.421876c0-4.578124 3.710937-8.289062 8.289062-8.289062h408.378906c4.574219 0 8.285156 3.710938 8.285156 8.289062v31.425782c0 4.574218-3.710937 8.285156-8.289062 8.285156zm0 0" fill="#4671c6"/><path d="m438.6875 142h-408.375c-6.777344 0-12.289062-5.511719-12.289062-12.289062v-31.421876c0-6.777343 5.511718-12.289062 12.289062-12.289062h408.375c6.777344 0 12.289062 5.511719 12.289062 12.289062v31.425782c0 6.773437-5.511718 12.285156-12.289062 12.285156zm-408.375-48c-2.363281 0-4.289062 1.921875-4.289062 4.289062v31.425782c0 2.363281 1.925781 4.289062 4.289062 4.289062h408.375c2.363281 0 4.289062-1.925781 4.289062-4.289062v-31.425782c0-2.363281-1.925781-4.289062-4.289062-4.289062zm0 0" fill="#3762cc"/><path d="m324.5 94c0 49.707031-40.292969 90-90 90s-90-40.292969-90-90 40.292969-90 90-90 90 40.292969 90 90zm0 0" fill="#f9a7a7"/><path d="m304.5 94c0 38.660156-31.339844 70-70 70s-70-31.339844-70-70 31.339844-70 70-70 70 31.339844 70 70zm0 0" fill="#ffea92"/><path d="m234.5 188c-51.832031 0-94-42.167969-94-94s42.167969-94 94-94 94 42.167969 94 94-42.167969 94-94 94zm0-180c-47.421875 0-86 38.578125-86 86s38.578125 86 86 86 86-38.578125 86-86-38.578125-86-86-86zm0 0" fill="#3762cc"/><path d="m464.5 264h-460l32.859375-80h394.28125zm0 0" fill="#a4c9ff"/><path d="m28.523438 314h-2.046876c-12.136718 0-21.976562-9.839844-21.976562-21.976562v-28.023438h46v28.023438c0 12.136718-9.839844 21.976562-21.976562 21.976562zm0 0" fill="#f9a7a7"/><path d="m74.523438 314h-2.046876c-12.136718 0-21.976562-9.839844-21.976562-21.976562v-28.023438h46v28.023438c0 12.136718-9.839844 21.976562-21.976562 21.976562zm0 0" fill="#e0ebfc"/><path d="m120.523438 314h-2.046876c-12.136718 0-21.976562-9.839844-21.976562-21.976562v-28.023438h46v28.023438c0 12.136718-9.839844 21.976562-21.976562 21.976562zm0 0" fill="#f9a7a7"/><path d="m166.523438 314h-2.046876c-12.136718 0-21.976562-9.839844-21.976562-21.976562v-28.023438h46v28.023438c0 12.136718-9.839844 21.976562-21.976562 21.976562zm0 0" fill="#e0ebfc"/><path d="m212.523438 314h-2.046876c-12.136718 0-21.976562-9.839844-21.976562-21.976562v-28.023438h46v28.023438c0 12.136718-9.839844 21.976562-21.976562 21.976562zm0 0" fill="#f9a7a7"/><path d="m258.523438 314h-2.046876c-12.136718 0-21.976562-9.839844-21.976562-21.976562v-28.023438h46v28.023438c0 12.136718-9.839844 21.976562-21.976562 21.976562zm0 0" fill="#e0ebfc"/><path d="m304.523438 314h-2.046876c-12.136718 0-21.976562-9.839844-21.976562-21.976562v-28.023438h46v28.023438c0 12.136718-9.839844 21.976562-21.976562 21.976562zm0 0" fill="#f9a7a7"/><path d="m350.523438 314h-2.046876c-12.136718 0-21.976562-9.839844-21.976562-21.976562v-28.023438h46v28.023438c0 12.136718-9.839844 21.976562-21.976562 21.976562zm0 0" fill="#e0ebfc"/><path d="m396.523438 314h-2.046876c-12.136718 0-21.976562-9.839844-21.976562-21.976562v-28.023438h46v28.023438c0 12.136718-9.839844 21.976562-21.976562 21.976562zm0 0" fill="#f9a7a7"/><path d="m442.523438 314h-2.046876c-12.136718 0-21.976562-9.839844-21.976562-21.976562v-28.023438h46v28.023438c0 12.136718-9.839844 21.976562-21.976562 21.976562zm0 0" fill="#e0ebfc"/><g fill="#3762cc"><path d="m464.5 268h-460c-1.335938 0-2.578125-.664062-3.320312-1.773438-.746094-1.105468-.886719-2.511718-.378907-3.746093l32.855469-80c.617188-1.5 2.078125-2.480469 3.703125-2.480469h394.285156c1.621094 0 3.082031.980469 3.699219 2.480469l32.859375 80c.503906 1.234375.363281 2.636719-.378906 3.746093-.746094 1.109376-1.988281 1.773438-3.324219 1.773438zm-454.035156-8h448.066406l-29.570312-72h-388.921876zm0 0"/><path d="m28.523438 318h-2.046876c-14.324218 0-25.976562-11.652344-25.976562-25.976562v-28.023438c0-2.207031 1.792969-4 4-4h46c2.207031 0 4 1.792969 4 4v28.023438c0 14.324218-11.652344 25.976562-25.976562 25.976562zm-20.023438-50v24.023438c0 9.914062 8.0625 17.976562 17.976562 17.976562h2.046876c9.914062 0 17.976562-8.0625 17.976562-17.976562v-24.023438zm0 0"/><path d="m74.523438 318h-2.046876c-14.324218 0-25.976562-11.652344-25.976562-25.976562v-28.023438c0-2.207031 1.792969-4 4-4h46c2.207031 0 4 1.792969 4 4v28.023438c0 14.324218-11.652344 25.976562-25.976562 25.976562zm-20.023438-50v24.023438c0 9.914062 8.0625 17.976562 17.976562 17.976562h2.046876c9.914062 0 17.976562-8.0625 17.976562-17.976562v-24.023438zm0 0"/><path d="m120.523438 318h-2.046876c-14.324218 0-25.976562-11.652344-25.976562-25.976562v-28.023438c0-2.207031 1.792969-4 4-4h46c2.207031 0 4 1.792969 4 4v28.023438c0 14.324218-11.652344 25.976562-25.976562 25.976562zm-20.023438-50v24.023438c0 9.914062 8.0625 17.976562 17.976562 17.976562h2.046876c9.914062 0 17.976562-8.0625 17.976562-17.976562v-24.023438zm0 0"/><path d="m166.523438 318h-2.046876c-14.324218 0-25.976562-11.652344-25.976562-25.976562v-28.023438c0-2.207031 1.792969-4 4-4h46c2.207031 0 4 1.792969 4 4v28.023438c0 14.324218-11.652344 25.976562-25.976562 25.976562zm-20.023438-50v24.023438c0 9.914062 8.0625 17.976562 17.976562 17.976562h2.046876c9.914062 0 17.976562-8.0625 17.976562-17.976562v-24.023438zm0 0"/><path d="m212.523438 318h-2.046876c-14.324218 0-25.976562-11.652344-25.976562-25.976562v-28.023438c0-2.207031 1.792969-4 4-4h46c2.207031 0 4 1.792969 4 4v28.023438c0 14.324218-11.652344 25.976562-25.976562 25.976562zm-20.023438-50v24.023438c0 9.914062 8.0625 17.976562 17.976562 17.976562h2.046876c9.914062 0 17.976562-8.0625 17.976562-17.976562v-24.023438zm0 0"/><path d="m258.523438 318h-2.046876c-14.324218 0-25.976562-11.652344-25.976562-25.976562v-28.023438c0-2.207031 1.792969-4 4-4h46c2.207031 0 4 1.792969 4 4v28.023438c0 14.324218-11.652344 25.976562-25.976562 25.976562zm-20.023438-50v24.023438c0 9.914062 8.0625 17.976562 17.976562 17.976562h2.046876c9.914062 0 17.976562-8.0625 17.976562-17.976562v-24.023438zm0 0"/><path d="m304.523438 318h-2.046876c-14.324218 0-25.976562-11.652344-25.976562-25.976562v-28.023438c0-2.207031 1.792969-4 4-4h46c2.207031 0 4 1.792969 4 4v28.023438c0 14.324218-11.652344 25.976562-25.976562 25.976562zm-20.023438-50v24.023438c0 9.914062 8.0625 17.976562 17.976562 17.976562h2.046876c9.914062 0 17.976562-8.0625 17.976562-17.976562v-24.023438zm0 0"/><path d="m350.523438 318h-2.046876c-14.324218 0-25.976562-11.652344-25.976562-25.976562v-28.023438c0-2.207031 1.792969-4 4-4h46c2.207031 0 4 1.792969 4 4v28.023438c0 14.324218-11.652344 25.976562-25.976562 25.976562zm-20.023438-50v24.023438c0 9.914062 8.0625 17.976562 17.976562 17.976562h2.046876c9.914062 0 17.976562-8.0625 17.976562-17.976562v-24.023438zm0 0"/><path d="m396.523438 318h-2.046876c-14.324218 0-25.976562-11.652344-25.976562-25.976562v-28.023438c0-2.207031 1.792969-4 4-4h46c2.207031 0 4 1.792969 4 4v28.023438c0 14.324218-11.652344 25.976562-25.976562 25.976562zm-20.023438-50v24.023438c0 9.914062 8.0625 17.976562 17.976562 17.976562h2.046876c9.914062 0 17.976562-8.0625 17.976562-17.976562v-24.023438zm0 0"/><path d="m442.523438 318h-2.046876c-14.324218 0-25.976562-11.652344-25.976562-25.976562v-28.023438c0-2.207031 1.792969-4 4-4h46c2.207031 0 4 1.792969 4 4v28.023438c0 14.324218-11.652344 25.976562-25.976562 25.976562zm-20.023438-50v24.023438c0 9.914062 8.0625 17.976562 17.976562 17.976562h2.046876c9.914062 0 17.976562-8.0625 17.976562-17.976562v-24.023438zm0 0"/></g><path d="m191.941406 93.128906h-.15625c-7.335937 0-13.28125-5.945312-13.28125-13.28125v-7.390625c0-7.335937 5.945313-13.28125 13.28125-13.28125h.15625c7.335938 0 13.28125 5.945313 13.28125 13.28125v7.390625c0 7.335938-5.949218 13.28125-13.28125 13.28125zm0 0" fill="#4671c6"/><path d="m277.058594 93.128906h.15625c7.335937 0 13.28125-5.945312 13.28125-13.28125v-7.390625c0-7.335937-5.945313-13.28125-13.28125-13.28125h-.15625c-7.335938 0-13.28125 5.945313-13.28125 13.28125v7.390625c0 7.335938 5.949218 13.28125 13.28125 13.28125zm0 0" fill="#4671c6"/><path d="m217.511719 68.820312h-.15625c-7.335938 0-13.285157-5.945312-13.285157-13.28125v-7.390624c0-7.335938 5.949219-13.28125 13.285157-13.28125h.15625c7.335937 0 13.28125 5.945312 13.28125 13.28125v7.390624c0 7.335938-5.945313 13.28125-13.28125 13.28125zm0 0" fill="#4671c6"/><path d="m250.769531 68.820312h.15625c7.335938 0 13.28125-5.945312 13.28125-13.28125v-7.390624c0-7.335938-5.945312-13.28125-13.28125-13.28125h-.15625c-7.335937 0-13.285156 5.945312-13.285156 13.28125v7.390624c0 7.335938 5.949219 13.28125 13.285156 13.28125zm0 0" fill="#4671c6"/><path d="m260.75 94.828125c-1.183594-.292969-2.003906-1.285156-2.003906-2.414063 0-12.371093-10.855469-22.398437-24.246094-22.398437s-24.246094 10.027344-24.246094 22.398437c0 1.132813-.820312 2.121094-2.003906 2.414063-10.222656 2.523437-17.75 11.128906-17.75 21.367187v.546876c0 12.21875 10.722656 22.125 23.949219 22.125h40.101562c13.226563 0 23.949219-9.90625 23.949219-22.125v-.546876c0-10.238281-7.527344-18.84375-17.75-21.367187zm0 0" fill="#4671c6"/><path d="m383.570312 336h-69.140624c-5.207032 0-9.425782 5.097656-9.425782 11.382812v125.230469c0 6.289063 4.21875 11.382813 9.425782 11.382813h69.140624c5.210938 0 9.429688-5.097656 9.429688-11.382813v-125.230469c0-6.285156-4.222656-11.382812-9.429688-11.382812zm0 0" fill="#e0ebfc"/><path d="m383.570312 488h-69.140624c-7.402344 0-13.425782-6.902344-13.425782-15.382812v-125.230469c0-8.484375 6.023438-15.382813 13.425782-15.382813h69.140624c7.40625 0 13.429688 6.898438 13.429688 15.382813v125.230469c0 8.480468-6.023438 15.382812-13.429688 15.382812zm-69.140624-148c-2.945313 0-5.429688 3.382812-5.429688 7.382812v125.230469c0 4.003907 2.484375 7.382813 5.429688 7.382813h69.140624c2.941407 0 5.425782-3.378906 5.425782-7.382813v-125.230469c0-4-2.484375-7.382812-5.425782-7.382812zm0 0" fill="#3762cc"/><path d="m393 414h-88c-2.207031 0-4-1.792969-4-4s1.792969-4 4-4h88c2.207031 0 4 1.792969 4 4s-1.792969 4-4 4zm0 0" fill="#3762cc"/><path d="m265.578125 428h-179.15625c-5.757813 0-10.421875-4.664062-10.421875-10.421875v-71.15625c0-5.757813 4.664062-10.421875 10.421875-10.421875h179.15625c5.757813 0 10.417969 4.664062 10.417969 10.421875v71.15625c.003906 5.757813-4.660156 10.421875-10.417969 10.421875zm0 0" fill="#e0ebfc"/><path d="m265.578125 432h-179.15625c-7.953125 0-14.421875-6.46875-14.421875-14.421875v-71.15625c0-7.953125 6.46875-14.421875 14.421875-14.421875h179.15625c7.953125 0 14.417969 6.46875 14.417969 14.421875v71.15625c.003906 7.953125-6.464844 14.421875-14.417969 14.421875zm-179.15625-92c-3.542969 0-6.421875 2.878906-6.421875 6.421875v71.15625c0 3.539063 2.878906 6.417969 6.421875 6.417969h179.15625c3.539063 0 6.417969-2.878906 6.417969-6.417969v-71.15625c0-3.542969-2.878906-6.421875-6.417969-6.421875zm0 0" fill="#3762cc"/></svg>