<svg id="Capa_1" enable-background="new 0 0 512.536 512.536" height="512" viewBox="0 0 512.536 512.536" width="512" xmlns="http://www.w3.org/2000/svg"><g><g><path d="m264.356 90.237 204.172 167.839v246.963h-212.26-212.26v-246.964l204.172-167.838c4.709-3.871 11.467-3.871 16.176 0z" fill="#efedef"/></g><g><path d="m468.528 258.073v246.97h-20.03v-228.831c0-4.418-1.978-8.605-5.391-11.411l-200.959-165.208c-.95-.78-1.99-1.41-3.08-1.87l9.11-7.49c4.71-3.87 11.47-3.87 16.18 0z" fill="#e5e1e5"/></g><g><path d="m264.457 10.49 236.616 198.591c2.33 1.956 3.676 4.842 3.676 7.884v49.101c0 8.694-10.112 13.472-16.828 7.951l-223.565-183.78c-4.7-3.864-11.477-3.864-16.177 0l-223.563 183.779c-6.716 5.521-16.828.743-16.828-7.951v-49.101c0-3.042 1.346-5.928 3.676-7.884l236.615-198.59c4.736-3.975 11.642-3.975 16.378 0z" fill="#5f99d7"/></g><g><path d="m504.748 216.963v24.26c-.59-.94-1.34-1.8-2.21-2.53l-256.12-214.95c-2.97-2.5-6.74-3.55-10.38-3.15l12.04-10.1c4.74-3.98 11.64-3.98 16.38 0l236.61 198.59c2.33 1.95 3.68 4.84 3.68 7.88z" fill="#3c87d0"/></g><g><g><path d="m227.054 505.043c0-30.868-25.023-55.892-55.892-55.892-3.398 0-6.719.32-9.95.901-8.146-17.193-25.652-29.087-45.941-29.087-28.065 0-50.816 22.751-50.816 50.816 0 12.746 4.693 24.335 12.445 33.255z" fill="#91deb6"/></g><g><path d="m227.058 505.043h-15.63c-9.4-21.22-30.65-36.02-55.35-36.02-1.127 0-2.247.033-3.358.096-4.502.258-8.71-2.049-11.19-5.816-9.836-14.939-26.748-24.8-45.972-24.8-7.95 0-15.5 1.69-22.32 4.72 9.14-13.44 24.55-22.26 42.03-22.26 20.29 0 37.8 11.9 45.94 29.09 3.23-.58 6.56-.9 9.95-.9 30.87 0 55.9 25.02 55.9 55.89z" fill="#6ed5a1"/></g><g><path d="m7.788 505.037c0-26.326 21.341-47.667 47.667-47.667s47.667 21.341 47.667 47.667z" fill="#46cc8d"/></g><g><path d="m103.118 505.033h-19.36c-5.08-20.85-23.89-36.33-46.3-36.33-5.52 0-10.82.94-15.75 2.67 8.63-8.65 20.56-14 33.75-14 26.32 0 47.66 21.34 47.66 47.66z" fill="#00c27a"/></g></g><g><g><path d="m285.482 505.043c0-30.868 25.023-55.892 55.892-55.892 3.398 0 6.719.32 9.95.901 8.146-17.193 25.652-29.087 45.941-29.087 28.065 0 50.816 22.751 50.816 50.816 0 12.746-4.693 24.335-12.445 33.255z" fill="#91deb6"/></g><g><path d="m448.078 471.783c0 12.74-4.69 24.33-12.44 33.25h-47.22c0-30.72 20.86-56.57 49.19-64.16 6.56 8.56 10.47 19.28 10.47 30.91z" fill="#6ed5a1"/></g><g><path d="m504.748 505.037c0-26.326-21.341-47.667-47.667-47.667s-47.667 21.341-47.667 47.667z" fill="#46cc8d"/></g><g><path d="m504.748 505.033h-19.36c-5.08-20.85-23.89-36.33-46.3-36.33-5.52 0-10.82.94-15.75 2.67 8.63-8.65 20.56-14 33.75-14 26.32 0 47.66 21.34 47.66 47.66z" fill="#00c27a"/></g></g><g><g><g><path d="m321.642 355.424c-7.782-13.003-21.026-21.677-34.252-29.074-19.76-11.05-42.267-11.171-62.244 0-13.226 7.396-26.47 16.071-34.252 29.074s-8.46 31.394 2.212 42.152c5.684 5.73 13.765 8.581 21.794 9.405s16.12-.198 24.126-1.218c8.399-1.071 15.483-2.385 23.952-1.371 11.449 1.371 23.087 3.777 34.658 2.589 8.029-.824 16.11-3.675 21.794-9.405 10.672-10.758 9.993-29.149 2.212-42.152z" fill="#ac5e2e"/></g><g><g><circle cx="176.356" cy="287.926" fill="#ac5e2e" r="26.002"/></g><g><circle cx="336.18" cy="287.926" fill="#ac5e2e" r="26.002"/></g></g><g><circle cx="256.268" cy="259.812" fill="#ac5e2e" r="28.113"/></g></g><g><g><path d="m319.431 397.572c-5.684 5.734-13.761 8.582-21.8 9.408-5.697.58-11.418.296-17.127-.308 5.647-1.59 10.925-4.328 15.031-8.471 11.381-11.467 10.653-31.085 2.355-44.957s-22.429-23.132-36.535-31.011c-2.824-1.578-5.696-2.947-8.619-4.106 11.8-.691 23.65 2.071 34.648 8.224 13.23 7.398 26.473 16.067 34.254 29.075 7.78 12.997 8.458 31.394-2.207 42.146z" fill="#9e5528"/></g><g><g><path d="m202.354 287.931c0 14.352-11.64 25.992-25.992 25.992-7.891 0-14.957-3.514-19.716-9.05 14.155-.222 25.573-11.776 25.573-25.993 0-6.473-2.367-12.392-6.288-16.942.136-.012.284-.012.432-.012 14.351 0 25.991 11.639 25.991 26.005z" fill="#9e5528"/></g><g><path d="m362.18 287.931c0 14.352-11.64 25.992-26.005 25.992-7.879 0-14.945-3.514-19.716-9.05 14.155-.222 25.573-11.763 25.573-25.993 0-6.473-2.368-12.392-6.289-16.942.136-.012.284-.012.432-.012 14.365 0 26.005 11.639 26.005 26.005z" fill="#9e5528"/></g></g><g><path d="m284.376 259.817c0 15.524-12.577 28.113-28.113 28.113-8.175 0-15.536-3.49-20.678-9.063.173.012.358.012.542.012 15.524 0 28.113-12.589 28.113-28.113 0-7.349-2.824-14.032-7.435-19.05 15.289.284 27.571 12.75 27.571 28.101z" fill="#9e5528"/></g></g></g><g><g><path d="m55.599 58.52h74.035c2.488 0 4.505-2.017 4.505-4.506v-24.952c0-2.488-2.017-4.506-4.505-4.506h-74.035c-2.488 0-4.506 2.017-4.506 4.506v24.952c0 2.488 2.017 4.506 4.506 4.506z" fill="#5f99d7"/></g><g><path d="m134.141 29.059v24.955c0 2.487-2.018 4.505-4.505 4.505h-19.223c2.487 0 4.505-2.018 4.505-4.505v-24.955c0-2.487-2.018-4.505-4.505-4.505h19.223c2.487.001 4.505 2.019 4.505 4.505z" fill="#3c87d0"/></g><g><path d="m123.088 115.234v-56.714h-60.945v107.865z" fill="#c9bfc8"/></g><g><path d="m123.085 58.52v56.716l-20.84 17.487v-74.203z" fill="#baafb9"/></g><g><path d="m328.078 351.573c-8.746-14.613-22.965-23.904-37.026-31.768-22.104-12.362-47.461-12.362-69.565 0-14.063 7.863-28.281 17.154-37.027 31.768-11.746 19.628-7.22 40.657 3.323 51.286 8.105 8.169 18.805 10.808 26.353 11.583 8.92.912 17.522-.18 25.842-1.239 7.333-.934 14.703-2.248 22.113-1.364 9.661 1.159 19.199 2.963 29.006 2.963 12.159 0 24.854-3.065 33.661-11.943 10.539-10.629 15.066-31.658 3.32-51.286zm-13.972 40.721c-3.887 3.918-10.008 6.483-17.235 7.226-10.976 1.128-22.468-1.316-32.999-2.574-8.796-1.051-17.084.269-25.793 1.378-7.476.952-15.205 1.937-22.413 1.196-7.228-.742-13.349-3.308-17.234-7.225-6.308-6.359-8.837-20.094-1.102-33.02 6.939-11.595 19.229-19.53 31.477-26.379 17.711-9.902 37.215-9.902 54.924 0 12.247 6.849 24.537 14.784 31.477 26.379 7.734 12.927 5.205 26.661-1.102 33.019z"/><path d="m209.857 287.926c0-18.473-15.028-33.502-33.501-33.502s-33.502 15.029-33.502 33.502 15.029 33.501 33.502 33.501 33.501-15.028 33.501-33.501zm-33.501 18.501c-10.202 0-18.502-8.3-18.502-18.501 0-10.202 8.3-18.502 18.502-18.502 10.201 0 18.501 8.3 18.501 18.502 0 10.201-8.3 18.501-18.501 18.501z"/><path d="m336.18 321.427c18.473 0 33.502-15.028 33.502-33.501s-15.029-33.502-33.502-33.502-33.501 15.029-33.501 33.502 15.029 33.501 33.501 33.501zm0-52.003c10.202 0 18.502 8.3 18.502 18.502 0 10.201-8.3 18.501-18.502 18.501-10.201 0-18.501-8.3-18.501-18.501 0-10.202 8.3-18.502 18.501-18.502z"/><path d="m256.268 295.426c19.638 0 35.613-15.977 35.613-35.614s-15.976-35.613-35.613-35.613-35.613 15.976-35.613 35.613 15.975 35.614 35.613 35.614zm0-56.228c11.366 0 20.613 9.247 20.613 20.613 0 11.367-9.247 20.614-20.613 20.614s-20.613-9.247-20.613-20.614c0-11.365 9.247-20.613 20.613-20.613z"/><path d="m483.158 279.809c5.371 4.417 12.612 5.315 18.898 2.344 6.287-2.97 10.192-9.134 10.192-16.087v-49.101c0-5.272-2.316-10.24-6.354-13.629l-236.615-198.591c-7.538-6.326-18.481-6.328-26.021 0l-112.669 94.563v-33.337c6.173-.49 11.05-5.66 11.05-11.958v-24.95c0-6.62-5.386-12.006-12.005-12.006h-21.865c-4.143 0-7.5 3.357-7.5 7.5s3.357 7.5 7.5 7.5h18.87v18.963h-68.046v-18.963h14.675c4.143 0 7.5-3.357 7.5-7.5s-3.357-7.5-7.5-7.5h-17.67c-6.619 0-12.005 5.386-12.005 12.006v24.951c0 6.298 4.877 11.468 11.05 11.958v97.078l-48.001 40.286c-4.038 3.389-6.354 8.356-6.354 13.629v49.101c0 6.953 3.905 13.117 10.192 16.087 2.457 1.161 5.06 1.731 7.64 1.731 4.021-.001 7.987-1.385 11.259-4.074l7.129-5.86v179.273c-21.114 7.745-36.22 28.048-36.22 51.813 0 4.143 3.357 7.5 7.5 7.5h496.961c4.143 0 7.5-3.357 7.5-7.5 0-23.765-15.106-44.069-36.22-51.813v-179.275zm-413.515-213.789h45.945v45.717l-45.945 38.563zm-53.653 431.516c3.523-18.575 19.88-32.666 39.465-32.666s35.941 14.091 39.465 32.666zm94.109.003c-2.721-19.927-16.117-36.491-34.225-43.734 6.841-14.935 21.924-25.338 39.397-25.338 16.653 0 32.025 9.733 39.163 24.797 1.449 3.061 4.769 4.767 8.103 4.171 2.892-.519 5.794-.782 8.626-.782 24.133 0 44.196 17.757 47.812 40.892zm183.463.004c.994-6.372 3.251-12.489 6.67-17.993 2.186-3.519 1.104-8.143-2.414-10.328-3.516-2.186-8.143-1.106-10.328 2.414-4.896 7.884-7.967 16.722-9.056 25.902h-44.339c-3.726-31.428-30.519-55.887-62.932-55.887-1.918 0-3.857.091-5.801.272-10.44-17.45-29.541-28.458-50.091-28.458-24.517 0-45.525 15.218-54.132 36.696-1.869-.192-3.766-.292-5.685-.292-1.329 0-2.642.064-3.947.157v-188.407l201.436-165.588c1.928-1.584 4.723-1.584 6.65 0l201.436 165.589v188.408c-1.305-.093-2.619-.157-3.947-.157-1.916 0-3.808.099-5.674.291-8.606-21.48-29.624-36.695-54.143-36.695-20.55 0-39.65 11.008-50.091 28.458-10.235-.956-20.19.557-29.487 4.304-3.842 1.549-5.701 5.918-4.152 9.76 1.548 3.841 5.915 5.701 9.76 4.152 8.343-3.362 17.428-4.369 26.705-2.706 3.333.602 6.654-1.109 8.103-4.171 7.138-15.063 22.51-24.797 39.163-24.797 17.473 0 32.556 10.403 39.397 25.338-18.107 7.243-31.503 23.807-34.224 43.734zm202.985-.007h-78.93c3.523-18.575 19.88-32.666 39.465-32.666s35.941 14.091 39.465 32.666zm-227.428-413.093c-7.447-6.121-18.256-6.123-25.701 0l-223.565 183.78c-1.19.978-2.369.648-2.966.367-.598-.282-1.6-.985-1.6-2.524v-49.101c0-.827.363-1.607.997-2.139l236.616-198.59c.976-.819 2.172-1.229 3.368-1.229s2.393.409 3.368 1.229l236.616 198.591c.633.531.996 1.312.996 2.139v49.101c0 1.539-1.002 2.242-1.6 2.524s-1.776.609-2.966-.368z"/></g></g></g></svg>