<svg height="512" viewBox="0 0 64 64" width="512" xmlns="http://www.w3.org/2000/svg"><g id="flat"><path d="m23 51h18v4h-18z" fill="#512623"/><path d="m23 55h18v4h-18z" fill="#66342e"/><path d="m3 51h20v8h-20z" fill="#d3843d"/><g fill="#f9bb4b"><path d="m6 54h2v2h-2z"/><path d="m10 54h2v2h-2z"/><path d="m14 54h2v2h-2z"/><path d="m18 54h2v2h-2z"/></g><path d="m41 51h20v8h-20z" fill="#d3843d"/><path d="m44 54h2v2h-2z" fill="#f9bb4b"/><path d="m48 54h2v2h-2z" fill="#f9bb4b"/><path d="m52 54h2v2h-2z" fill="#f9bb4b"/><path d="m56 54h2v2h-2z" fill="#f9bb4b"/><path d="m23 39h18v12h-18z" fill="#2d75bb"/><path d="m31 39h2v12h-2z" fill="#f4f4e6"/><path d="m27 42h2v2h-2z" fill="#f4f4e6"/><path d="m35 42h2v2h-2z" fill="#f4f4e6"/><path d="m23 35h18v4h-18z" fill="#50b4f8"/><path d="m23 10-17 10h-3v-4h2l18-11z" fill="#b11e48"/><path d="m23 13v-3l-17 10v31h17v-16h18v16h17v-23z" fill="#cfdfe8"/><path d="m23 13 35 15h3v-4h-2l-36-15z" fill="#b11e48"/><path d="m20 24h-3v-3h-4v3h-3v4h3v3h4v-3h3z" fill="#dd3e46"/><path d="m10 37h9v6h-9z" fill="#50b4f8"/><path d="m45 37h9v6h-9z" fill="#50b4f8"/><path d="m10 43h9v4h-9z" fill="#2d75bb"/><path d="m45 43h9v4h-9z" fill="#2d75bb"/><path d="m38.31 27.5a2 2 0 1 0 -3.31-1.5h-6a2 2 0 1 0 -3.31 1.5 1.993 1.993 0 1 0 3.033 2.5h6.554a1.994 1.994 0 1 0 3.033-2.5z" fill="#fff"/></g></svg>