<svg height="451pt" viewBox="0 0 451.76212 451" width="451pt" xmlns="http://www.w3.org/2000/svg"><path d="m26.460938 91.601562h398.839843v334.078126h-398.839843zm0 0" fill="#fce8cb"/><path d="m425.300781 88.601562h-398.839843c-1.65625 0-3 1.339844-3 3v126.320313c0 1.65625 1.34375 3 3 3s3-1.34375 3-3v-123.320313h392.839843v328.078126h-392.839843v-177.414063c0-1.65625-1.34375-3-3-3s-3 1.34375-3 3v180.414063c0 1.660156 1.34375 3 3 3h398.839843c1.65625 0 3-1.339844 3-3v-334.078126c0-1.660156-1.34375-3-3-3zm0 0" fill="#3a312a"/><path d="m148.703125 206h-77.285156c-8.539063 0-15.457031 6.921875-15.457031 15.457031v204.222657h108.199218v-204.222657c0-8.535156-6.917968-15.457031-15.457031-15.457031zm0 0" fill="#8ac6dd"/><path d="m148.703125 203h-77.285156c-10.175781 0-18.457031 8.28125-18.457031 18.457031v204.222657c0 1.660156 1.34375 3 3 3h108.199218c1.65625 0 3-1.339844 3-3v-204.222657c0-10.175781-8.28125-18.457031-18.457031-18.457031zm12.457031 219.679688h-102.199218v-201.222657c0-6.867187 5.585937-12.457031 12.457031-12.457031h77.285156c6.871094 0 12.457031 5.589844 12.457031 12.457031zm0 0" fill="#3a312a"/><path d="m377.597656 205.992188h-165.570312c-8.535156 0-15.457032 6.917968-15.457032 15.453124v165.570313c0 8.539063 6.921876 15.457031 15.457032 15.457031h165.570312c8.535156 0 15.457032-6.917968 15.457032-15.457031v-165.570313c0-8.535156-6.921876-15.453124-15.457032-15.453124zm0 0" fill="#8ac6dd"/><path d="m377.59375 202.992188h-165.566406c-10.179688 0-18.457032 8.277343-18.457032 18.453124v165.570313c0 10.179687 8.277344 18.460937 18.457032 18.460937h165.566406c10.179688 0 18.460938-8.28125 18.460938-18.460937v-165.570313c0-10.175781-8.28125-18.453124-18.460938-18.453124zm12.460938 184.023437c0 6.871094-5.589844 12.460937-12.460938 12.460937h-165.566406c-6.871094 0-12.457032-5.589843-12.457032-12.460937v-165.570313c0-6.867187 5.589844-12.453124 12.457032-12.453124h165.566406c6.871094 0 12.460938 5.585937 12.460938 12.453124zm0 0" fill="#3a312a"/><path d="m437.03125 425.679688h-422.300781c-6.476563 0-11.730469 5.253906-11.730469 11.730468 0 6.480469 5.253906 11.730469 11.730469 11.730469h422.300781c6.476562 0 11.730469-5.25 11.730469-11.730469 0-6.476562-5.253907-11.730468-11.730469-11.730468zm0 0" fill="#87796f"/><path d="m437.03125 422.679688h-422.300781c-8.125 0-14.730469 6.609374-14.730469 14.730468s6.609375 14.730469 14.730469 14.730469h422.300781c8.125 0 14.730469-6.609375 14.730469-14.730469s-6.605469-14.730468-14.730469-14.730468zm0 23.460937h-422.300781c-4.8125 0-8.730469-3.914063-8.730469-8.730469s3.917969-8.730468 8.730469-8.730468h422.300781c4.8125 0 8.730469 3.914062 8.730469 8.730468s-3.917969 8.730469-8.730469 8.730469zm0 0" fill="#3a312a"/><path d="m378.378906 3.382812h-304.996094l-70.382812 88.210938h445.761719zm0 0" fill="#f16c7a"/><path d="m451.105469 89.722656-70.378907-88.214844c-.570312-.710937-1.4375-1.125-2.347656-1.125h-59.941406c-1.65625 0-3 1.339844-3 3 0 1.65625 1.34375 3 3 3h58.496094l65.59375 82.210938h-433.292969l65.59375-82.210938h217.160156c1.65625 0 3-1.34375 3-3 0-1.660156-1.34375-3-3-3h-218.605469c-.910156 0-1.777343.414063-2.347656 1.125l-70.378906 88.214844c-.71875.902344-.859375 2.132813-.359375 3.171875.5 1.039063 1.550781 1.699219 2.703125 1.699219h445.761719c1.152343 0 2.203125-.660156 2.703125-1.699219.5-1.039062.363281-2.269531-.359375-3.171875zm0 0" fill="#3a312a"/><path d="m92.128906 91.59375v48.558594c.007813-.289063.023438-.574219.023438-.859375.003906 24.617187 19.957031 44.570312 44.578125 44.570312 23.964843 0 43.511719-18.917969 44.523437-42.636719v-49.632812zm0 0" fill="#d7e057"/><path d="m181.257812 88.59375h-89.128906c-1.652344 0-3 1.34375-3 3v48.558594c0 .171875.015625.335937.042969.496094.71875 25.609374 21.777344 46.214843 47.554687 46.214843 25.554688 0 46.433594-19.988281 47.527344-45.636719v-49.632812c.003906-1.65625-1.339844-3-2.996094-3zm-44.527343 92.269531c-22.925781 0-41.574219-18.648437-41.578125-41.574219 0-.121093-.007813-.242187-.023438-.363281v-44.332031h83.128906v46.503906c-.953124 22.296875-19.195312 39.765625-41.527343 39.765625zm0 0" fill="#3a312a"/><path d="m3 91.59375v47.695312c0 24.617188 19.957031 44.574219 44.578125 44.574219 24.328125 0 44.089844-19.492187 44.550781-43.710937v-48.558594zm0 0" fill="#f16c7a"/><path d="m92.128906 88.59375h-89.128906c-1.65625 0-3 1.34375-3 3v47.695312c0 26.234376 21.34375 47.574219 47.578125 47.574219 25.730469 0 47.0625-20.925781 47.550781-46.710937v-48.558594c0-1.65625-1.34375-3-3-3zm-3 51.5c-.429687 22.480469-19.066406 40.769531-41.550781 40.769531-22.925781 0-41.578125-18.652343-41.578125-41.578125v-44.691406h83.128906zm0 0" fill="#3a312a"/><path d="m359.507812 91.59375v50.585938c.0625-.957032.101563-1.917969.101563-2.886719.003906 24.617187 19.960937 44.570312 44.578125 44.570312s44.574219-19.957031 44.574219-44.574219v-47.695312zm0 0" fill="#f16c7a"/><path d="m448.761719 88.59375h-89.257813c-1.65625 0-3 1.34375-3 3v50.585938c0 .457031.101563.886718.285156 1.273437 2.117188 24.292969 22.566407 43.414063 47.394532 43.414063 26.234375 0 47.578125-21.34375 47.578125-47.574219v-47.699219c0-1.65625-1.34375-3-3-3zm-3 50.691406c0 22.925782-18.652344 41.578125-41.578125 41.578125-22.925782 0-41.574219-18.648437-41.574219-41.574219 0-.273437-.035156-.535156-.105469-.785156v-43.910156h83.257813zm0 0" fill="#3a312a"/><path d="m270.378906 91.59375v50.226562c.046875-.839843.078125-1.683593.078125-2.535156 0 24.621094 19.957031 44.578125 44.574219 44.578125 23.648438 0 42.984375-18.417969 44.476562-41.6875v-50.582031zm0 0" fill="#d7e057"/><path d="m359.507812 88.59375h-89.128906c-1.652344 0-3 1.34375-3 3v50.226562c0 .394532.078125.769532.214844 1.113282 1.867188 24.539062 22.429688 43.929687 47.4375 43.929687 25.023438 0 45.871094-19.546875 47.472656-44.6875v-50.582031c.003906-1.65625-1.339844-3-2.996094-3zm-44.476562 92.269531c-22.925781 0-41.574219-18.652343-41.574219-41.578125 0-.230468-.027343-.457031-.078125-.671875v-44.019531h83.128906l.003907 47.394531c-1.398438 21.796875-19.613281 38.875-41.480469 38.875zm0 0" fill="#3a312a"/><path d="m181.257812 91.59375v49.632812c.027344-.644531.046876-1.289062.046876-1.9375 0 24.617188 19.957031 44.574219 44.574218 44.574219 23.769532 0 43.191406-18.601562 44.5-42.042969v-50.226562zm0 0" fill="#f16c7a"/><path d="m270.378906 88.59375h-89.125c-1.65625 0-3 1.34375-3 3v49.632812c0 .304688.046875.601563.132813.878907 1.460937 24.925781 22.203125 44.757812 47.492187 44.757812 25.222656 0 46.085938-19.710937 47.5-45.042969v-50.226562c0-1.65625-1.34375-3-3-3zm-44.5 92.269531c-22.925781 0-41.574218-18.652343-41.574218-41.578125 0-.183594-.019532-.363281-.046876-.539062v-44.152344h83.125l.003907 47.058594c-1.230469 21.988281-19.464844 39.210937-41.507813 39.210937zm0 0" fill="#3a312a"/><path d="m363.878906 304.261719c0 38.660156-31.339844 70-70 70-38.65625 0-70-31.339844-70-70 0-38.660157 31.34375-70 70-70 38.660156 0 70 31.339843 70 70zm0 0" fill="#fce8cb"/><path d="m293.878906 231.261719c-40.25 0-73 32.746093-73 73 0 40.25 32.75 73 73 73 40.253906 0 73-32.75 73-73 0-40.253907-32.746094-73-73-73zm0 140c-36.941406 0-67-30.058594-67-67 0-36.945313 30.058594-67 67-67 36.945313 0 67 30.054687 67 67 0 36.941406-30.054687 67-67 67zm0 0" fill="#3a312a"/><path d="m404.179688 186.859375c-4.097657 0-8.078126-.519531-11.878907-1.519531v24.960937c2.359375 3.101563 3.761719 6.941407 3.761719 11.140625v165.578125c0 4.179688-1.402344 8.042969-3.761719 11.140625v24.519532h30v-239.398438c-5.578125 2.300781-11.699219 3.578125-18.121093 3.578125zm0 0" fill="#decaad"/><path d="m376.941406 6.382812h-30l65.578125 82.21875h30zm0 0" fill="#d34e5c"/><path d="m415.761719 94.601562v44.679688c0 17.660156-11.039063 32.761719-26.582031 38.78125 4.640624 1.796875 9.722656 2.796875 15 2.796875 22.941406 0 41.582031-18.636719 41.582031-41.578125v-44.679688zm0 0" fill="#d34e5c"/><path d="m293.617188 302.28125c-13.570313 0-24.570313 13.359375-24.570313 24.625s11 13.230469 24.570313 13.230469c13.574218 0 24.574218-1.96875 24.574218-13.230469 0-11.265625-11.003906-24.625-24.574218-24.625zm0 0" fill="#87796f"/><path d="m293.617188 299.28125c-15.527344 0-27.570313 14.851562-27.570313 27.625 0 16.230469 19.320313 16.230469 27.570313 16.230469s27.574218 0 27.574218-16.230469c0-12.773438-12.042968-27.625-27.574218-27.625zm0 37.855469c-17.902344 0-21.570313-4.089844-21.570313-10.230469 0-9.734375 9.957031-21.625 21.570313-21.625 11.617187 0 21.574218 11.890625 21.574218 21.625 0 6.140625-3.667968 10.230469-21.574218 10.230469zm0 0" fill="#3a312a"/><path d="m293.617188 268.996094c-5.3125 0-9.621094 5.53125-9.621094 12.351562 0 6.820313 4.308594 12.347656 9.621094 12.347656 5.316406 0 9.625-5.527343 9.625-12.347656 0-6.824218-4.308594-12.351562-9.625-12.351562zm0 0" fill="#87796f"/><path d="m293.617188 265.996094c-6.957032 0-12.625 6.886718-12.625 15.351562s5.664062 15.347656 12.625 15.347656c6.964843 0 12.625-6.882812 12.625-15.347656s-5.660157-15.351562-12.625-15.351562zm0 24.699218c-3.589844 0-6.625-4.28125-6.625-9.351562 0-5.066406 3.035156-9.347656 6.625-9.347656 3.589843 0 6.625 4.28125 6.625 9.347656 0 5.070312-3.035157 9.351562-6.625 9.351562zm0 0" fill="#3a312a"/><path d="m274.738281 286.632812c-3.1875-6.03125-9.578125-8.90625-14.28125-6.421874-4.699219 2.480468-5.925781 9.382812-2.738281 15.414062s9.578125 8.90625 14.277344 6.425781c4.699218-2.484375 5.925781-9.386719 2.742187-15.417969zm0 0" fill="#87796f"/><path d="m277.390625 285.230469c-1.855469-3.503907-4.691406-6.25-7.992187-7.738281-3.5625-1.601563-7.230469-1.578126-10.339844.0625-6.152344 3.253906-7.945313 11.988281-3.992188 19.46875 2.945313 5.570312 8.25 8.902343 13.308594 8.902343 1.738281-.003906 3.453125-.394531 5.027344-1.226562 3.105468-1.640625 5.195312-4.664063 5.875-8.503907.636718-3.566406-.035156-7.460937-1.886719-10.964843zm-4.019531 9.914062c-.351563 1.984375-1.339844 3.492188-2.773438 4.25-3.179687 1.671875-7.859375-.691406-10.226562-5.171875-2.367188-4.480468-1.6875-9.6875 1.488281-11.363281.6875-.363281 1.457031-.542969 2.277344-.542969.890625 0 1.839843.214844 2.796875.648438 2.089844.9375 3.917968 2.738281 5.148437 5.066406 1.234375 2.332031 1.6875 4.859375 1.289063 7.113281zm0 0" fill="#3a312a"/><path d="m254.933594 304.988281c-5.429688-4.128906-12.441406-4.042969-15.65625.1875-3.214844 4.234375-1.421875 11.007813 4.007812 15.136719 5.429688 4.125 12.441406 4.039062 15.65625-.191406 3.21875-4.230469 1.421875-11.007813-4.007812-15.132813zm0 0" fill="#87796f"/><path d="m256.746094 302.597656c-3.152344-2.398437-6.882813-3.714844-10.507813-3.648437-3.902343.046875-7.222656 1.617187-9.347656 4.414062-2.128906 2.796875-2.75 6.417969-1.75 10.191407.929687 3.5 3.175781 6.75 6.332031 9.144531 3.195313 2.429687 6.875 3.628906 10.3125 3.628906 3.816406 0 7.332032-1.476563 9.546875-4.394531 4.210938-5.539063 2.15625-14.214844-4.585937-19.335938zm-.191406 15.707032c-2.175782 2.859374-7.414063 2.683593-11.453126-.382813-2.097656-1.59375-3.574218-3.691406-4.164062-5.90625-.515625-1.945313-.257812-3.730469.726562-5.023437.984376-1.296876 2.632813-2.019532 4.644532-2.046876h.109375c2.257812 0 4.632812.863282 6.699219 2.429688 4.035156 3.066406 5.609374 8.070312 3.4375 10.929688zm0 0" fill="#3a312a"/><path d="m326.925781 280.210938c-4.699219-2.484376-11.089843.390624-14.277343 6.421874s-1.960938 12.933594 2.742187 15.414063c4.699219 2.480469 11.089844-.394531 14.277344-6.421875 3.183593-6.03125 1.957031-12.933594-2.742188-15.414062zm0 0" fill="#87796f"/><path d="m328.328125 277.558594c-3.105469-1.644532-6.78125-1.664063-10.335937-.066406-3.304688 1.488281-6.140626 4.234374-7.992188 7.742187-1.851562 3.503906-2.523438 7.398437-1.890625 10.960937.683594 3.84375 2.773437 6.863282 5.878906 8.503907 1.574219.832031 3.285157 1.226562 5.023438 1.226562 5.058593 0 10.367187-3.332031 13.308593-8.902343 3.953126-7.480469 2.164063-16.214844-3.992187-19.464844zm-1.3125 16.664062c-2.371094 4.480469-7.042969 6.851563-10.226563 5.175782-1.4375-.761719-2.421874-2.269532-2.773437-4.25-.402344-2.257813.054687-4.785157 1.289063-7.113282 1.226562-2.324218 3.054687-4.128906 5.148437-5.066406.957031-.433594 1.90625-.648438 2.796875-.648438.816406 0 1.589844.179688 2.273438.542969 3.175781 1.675781 3.859374 6.878907 1.492187 11.359375zm0 0" fill="#3a312a"/><path d="m347.621094 305.175781c-3.214844-4.230469-10.222656-4.316406-15.65625-.1875-5.429688 4.125-7.226563 10.902344-4.011719 15.132813 3.21875 4.230468 10.226563 4.316406 15.65625.191406 5.429687-4.128906 7.226563-10.902344 4.011719-15.136719zm0 0" fill="#87796f"/><path d="m350.007812 303.363281c-2.125-2.800781-5.445312-4.367187-9.347656-4.417969-.058594 0-.121094 0-.179687 0-3.566407 0-7.226563 1.292969-10.328125 3.652344-6.742188 5.121094-8.796875 13.796875-4.585938 19.335938 2.125 2.800781 5.445313 4.371094 9.347656 4.417968h.179688c3.566406 0 7.226562-1.292968 10.332031-3.652343 6.738281-5.121094 8.796875-13.796875 4.582031-19.335938zm-8.210937 14.558594c-2.097656 1.59375-4.476563 2.417969-6.808594 2.429687-2.011719-.023437-3.660156-.75-4.644531-2.042968-2.171875-2.863282-.597656-7.867188 3.4375-10.929688 2.066406-1.570312 4.441406-2.429687 6.703125-2.429687h.105469c2.011718.023437 3.664062.75 4.644531 2.042969 2.171875 2.859374.597656 7.863281-3.4375 10.929687zm0 0" fill="#3a312a"/></svg>