<?xml version="1.0" encoding="iso-8859-1"?>
<!-- Generator: Adobe Illustrator 19.0.0, SVG Export Plug-In . SVG Version: 6.00 Build 0)  -->
<svg version="1.1" id="Layer_1" xmlns="http://www.w3.org/2000/svg" xmlns:xlink="http://www.w3.org/1999/xlink" x="0px" y="0px"
	 viewBox="0 0 402.11 402.11" style="enable-background:new 0 0 402.11 402.11;" xml:space="preserve">
<g>
	<rect x="30.601" y="14.667" style="fill:#46CC59;" width="340.91" height="387.44"/>
	<rect x="45.909" y="189.786" style="fill:#2D4151;" width="184.082" height="197.205"/>
	<rect x="58.616" y="377.443" style="fill:#F9C032;" width="158.667" height="9.548"/>
	<path style="fill:#3CBA4A;" d="M39.598,183.667V393.11h196.703V183.667H39.598z M227.301,384.109H48.598V192.667h178.703V384.109z"
		/>
	<rect x="246.301" y="183.667" style="fill:#3CBA4A;" width="116.211" height="218.443"/>
	<rect x="255.301" y="192.667" style="fill:#2D4151;" width="98.211" height="161.333"/>
	<rect x="255.301" y="363.333" style="fill:#46CC59;" width="98.211" height="29.776"/>
	<rect x="264.301" y="372.333" style="fill:#3CBA4A;" width="80.211" height="11.776"/>
	<g>
		<circle style="fill:#D8D4D5;" cx="304.126" cy="274.058" r="2.469"/>
		<g>
			<polygon style="fill:#C1B9BC;" points="316.076,283.414 304.166,274.396 292.804,283.193 292.468,282.759 304.163,273.705 
				316.408,282.976 			"/>
		</g>
		<path style="fill:#F9C032;" d="M321.288,290.955c0,2.201-1.8,4-4,4h-25.763c-2.2,0-4-1.799-4-4v-5.293c0-2.199,1.8-4,4-4h25.763
			c2.2,0,4,1.801,4,4V290.955z"/>
		<g>
			<path style="fill:#FAFCFC;" d="M296.352,284.052c0.601,0,1.112,0.213,1.533,0.636c0.421,0.423,0.631,0.933,0.631,1.529v4.935
				c0,0.602-0.212,1.112-0.635,1.533s-0.933,0.631-1.529,0.631c-0.601,0-1.111-0.211-1.529-0.635
				c-0.418-0.423-0.628-0.933-0.628-1.529v-4.935c0-0.601,0.212-1.112,0.635-1.533C295.252,284.263,295.76,284.052,296.352,284.052z
				 M297.095,286.189c0-0.217-0.076-0.4-0.227-0.553c-0.152-0.151-0.335-0.227-0.552-0.227c-0.216,0-0.401,0.075-0.555,0.227
				s-0.231,0.336-0.231,0.553v4.949c0,0.216,0.077,0.4,0.231,0.551c0.154,0.152,0.339,0.228,0.555,0.228
				c0.217,0,0.4-0.075,0.552-0.228c0.151-0.15,0.227-0.335,0.227-0.551V286.189z"/>
			<path style="fill:#FAFCFC;" d="M301.87,284.168c0.664,0,1.193,0.209,1.587,0.628c0.365,0.398,0.548,0.908,0.548,1.529v1.313
				c0,0.597-0.208,1.106-0.624,1.529c-0.416,0.424-0.92,0.635-1.512,0.635h-0.786v3.406h-1.364v-9.04L301.87,284.168L301.87,284.168
				z M302.686,286.347c0-0.236-0.071-0.426-0.213-0.57s-0.331-0.217-0.566-0.217h-0.822v2.894h0.822c0.217,0,0.4-0.077,0.552-0.231
				c0.151-0.153,0.227-0.338,0.227-0.555L302.686,286.347L302.686,286.347z"/>
			<path style="fill:#FAFCFC;" d="M305.095,293.209v-9.047h3.881v1.37h-2.518V288h1.84v1.371h-1.84v2.467h2.518v1.371H305.095z"/>
			<path style="fill:#FAFCFC;" d="M311.445,284.162l1.81,6.08v-6.08h1.364v9.047h-1.465l-1.875-5.793v5.793h-1.364v-9.047H311.445z"
				/>
		</g>
	</g>
	<path style="fill:#3CBA4A;" d="M337.42,97.318h-34.091h-34.091h-34.091h-34.091h-34.091h-34.091H98.781H64.689H30.598v62.983
		c0,9.414,7.632,17.046,17.046,17.046s17.046-7.632,17.046-17.046c0,9.414,7.632,17.046,17.046,17.046l0,0
		c9.414,0,17.046-7.632,17.046-17.046c0,9.414,7.632,17.046,17.046,17.046l0,0c9.414,0,17.046-7.632,17.046-17.046
		c0,9.414,7.632,17.046,17.046,17.046l0,0c9.414,0,17.046-7.632,17.046-17.046c0,9.414,7.632,17.046,17.046,17.046l0,0
		c9.414,0,17.046-7.632,17.046-17.046c0,9.414,7.632,17.046,17.046,17.046l0,0c9.414,0,17.046-7.632,17.046-17.046
		c0,9.414,7.632,17.046,17.046,17.046l0,0c9.414,0,17.046-7.632,17.046-17.046c0,9.414,7.632,17.046,17.046,17.046l0,0
		c9.414,0,17.046-7.632,17.046-17.046c0,9.414,7.632,17.046,17.046,17.046l0,0c9.414,0,17.046-7.632,17.046-17.046
		c0,9.414,7.632,17.046,17.046,17.046l0,0c9.414,0,17.046-7.632,17.046-17.046V97.318H337.42z"/>
	<g>
		<path style="fill:#3496F7;" d="M64.691,89.987v62.98c0,9.42-7.63,17.05-17.05,17.05c-9.41,0-17.04-7.63-17.04-17.05v-62.98H64.691
			z"/>
		<path style="fill:#F9C032;" d="M98.781,89.987v62.98c0,9.42-7.63,17.05-17.05,17.05c-9.41,0-17.04-7.63-17.04-17.05v-62.98H98.781
			z"/>
		<path style="fill:#3496F7;" d="M132.871,89.987v62.98c0,9.42-7.63,17.05-17.04,17.05c-9.42,0-17.05-7.63-17.05-17.05v-62.98
			H132.871z"/>
		<path style="fill:#F9C032;" d="M166.961,89.987v62.98c0,9.42-7.63,17.05-17.04,17.05c-9.42,0-17.05-7.63-17.05-17.05v-62.98
			H166.961z"/>
		<path style="fill:#3496F7;" d="M201.051,89.987v62.98c0,9.42-7.63,17.05-17.04,17.05c-9.42,0-17.05-7.63-17.05-17.05v-62.98
			H201.051z"/>
		<path style="fill:#F9C032;" d="M235.151,89.987v62.98c0,9.42-7.64,17.05-17.05,17.05s-17.05-7.63-17.05-17.05v-62.98H235.151z"/>
		<path style="fill:#3496F7;" d="M269.241,89.987v62.98c0,9.42-7.63,17.05-17.05,17.05c-9.41,0-17.04-7.63-17.04-17.05v-62.98
			H269.241z"/>
		<path style="fill:#F9C032;" d="M303.331,89.987v62.98c0,9.42-7.63,17.05-17.05,17.05c-9.41,0-17.04-7.63-17.04-17.05v-62.98
			H303.331z"/>
		<path style="fill:#3496F7;" d="M337.421,89.987v62.98c0,9.42-7.63,17.05-17.05,17.05c-9.41,0-17.04-7.63-17.04-17.05v-62.98
			H337.421z"/>
		<path style="fill:#F9C032;" d="M371.511,89.987v62.98c0,9.42-7.63,17.05-17.04,17.05c-9.42,0-17.05-7.63-17.05-17.05v-62.98
			H371.511z"/>
	</g>
	<rect x="20.537" style="fill:#46CC59;" width="361.036" height="14.667"/>
	<rect x="30.601" y="14.667" style="fill:#3CBA4A;" width="340.91" height="4"/>
	<path style="fill:#2278B2;" d="M30.601,152.967h34.09c0,9.42-7.63,17.05-17.05,17.05C38.231,170.017,30.601,162.387,30.601,152.967
		z"/>
	<path style="fill:#E0AA32;" d="M64.691,152.967h34.09c0,9.42-7.63,17.05-17.05,17.05C72.321,170.017,64.691,162.387,64.691,152.967
		z"/>
	<path style="fill:#2278B2;" d="M98.781,152.967h34.09c0,9.42-7.63,17.05-17.04,17.05
		C106.411,170.017,98.781,162.387,98.781,152.967z"/>
	<path style="fill:#E0AA32;" d="M132.871,152.967h34.09c0,9.42-7.63,17.05-17.04,17.05
		C140.501,170.017,132.871,162.387,132.871,152.967z"/>
	<path style="fill:#2278B2;" d="M166.961,152.967h34.09c0,9.42-7.63,17.05-17.04,17.05
		C174.591,170.017,166.961,162.387,166.961,152.967z"/>
	<path style="fill:#E0AA32;" d="M201.051,152.967h34.1c0,9.42-7.64,17.05-17.05,17.05S201.051,162.387,201.051,152.967z"/>
	<path style="fill:#2278B2;" d="M235.151,152.967h34.09c0,9.42-7.63,17.05-17.05,17.05
		C242.781,170.017,235.151,162.387,235.151,152.967z"/>
	<path style="fill:#E0AA32;" d="M269.241,152.967h34.09c0,9.42-7.63,17.05-17.05,17.05
		C276.871,170.017,269.241,162.387,269.241,152.967z"/>
	<path style="fill:#2278B2;" d="M303.331,152.967h34.09c0,9.42-7.63,17.05-17.05,17.05
		C310.961,170.017,303.331,162.387,303.331,152.967z"/>
	<path style="fill:#E0AA32;" d="M371.511,152.967c0,9.42-7.63,17.05-17.04,17.05c-9.42,0-17.05-7.63-17.05-17.05H371.511z"/>
	<path style="opacity:0.2;fill:#FCFAFA;enable-background:new    ;" d="M347.304,204.657v144h-82.376
		C264.928,348.656,337.213,325.532,347.304,204.657z"/>
	<path style="fill:#F9C032;" d="M282.556,80.483h-163c-14.912,0-27-12.088-27-27l0,0c0-14.912,12.088-27,27-27h163
		c14.912,0,27,12.088,27,27l0,0C309.556,68.395,297.468,80.483,282.556,80.483z"/>
	<g>
		<path style="fill:#3496F7;" d="M138.18,51.807c0.294,0,0.84,0.042,1.512,0.042h0.504c0.126-3.361,0.294-6.889,0.462-9.788
			l0.126-3.024c-2.73,1.218-4.957,2.856-5.503,4.033c-1.008-0.336-1.891-1.638-1.891-2.982c0-0.672,0.21-1.428,0.798-2.185
			c1.68-2.184,6.007-3.234,10.418-3.234c3.528,0,7.267,0.714,9.199,2.016c2.604,1.765,3.697,4.033,3.697,6.133
			c0,2.437-1.344,4.873-3.402,6.889c-2.185,2.185-5.671,3.613-8.864,4.285v1.933c0,4.117,0.084,8.527,0.252,10.333
			c-1.974,0.294-3.991-0.462-4.747-2.184c-0.462-1.008-0.63-3.655-0.63-7.057V54.37c-0.378-0.042-1.134-0.294-1.764-0.84
			C137.549,52.815,137.297,51.723,138.18,51.807z M145.279,50.841c1.554-0.588,3.192-1.512,4.705-2.94
			c1.554-1.47,2.688-4.033,2.688-6.343c0-2.898-2.269-4.159-5.125-4.159c-0.966,0-1.975,0.126-2.982,0.378l0.168,0.378
			c0.462,1.47,0.714,3.949,0.714,6.847c0,1.554-0.084,3.444-0.126,5.335C145.321,50.505,145.279,50.673,145.279,50.841z"/>
		<path style="fill:#3496F7;" d="M161.323,55.084c0,2.688,0.504,5.293,1.932,6.763c0.966,1.05,2.101,1.512,3.193,1.512
			c1.428,0,2.898-0.714,4.075-1.89s2.058-2.814,2.353-4.579c0.924,0,1.554,1.134,1.344,2.437c-0.294,1.639-1.134,3.067-2.353,4.201
			c-1.723,1.597-4.075,2.563-6.595,2.563c-2.479,0-5.209-0.84-7.099-3.234c-1.513-1.89-2.185-4.705-2.185-7.604
			c0-2.94,0.714-5.965,2.227-8.149c1.512-2.226,3.696-3.108,5.797-3.108c2.521,0,4.957,1.26,5.713,2.94
			c1.05,2.269,0.294,4.411-1.806,6.091C166.112,54.454,163.591,55.084,161.323,55.084z M161.407,53.11
			c1.05-0.21,2.017-0.546,3.066-1.218c1.26-0.882,1.933-2.395,1.933-3.529c0-1.218-0.84-2.395-1.765-2.269
			C163.087,46.346,161.785,49.749,161.407,53.11z"/>
		<path style="fill:#3496F7;" d="M172.578,62.099c-0.294-0.756-0.378-2.352-0.378-4.495c0-2.521,0.126-5.797,0.294-9.158
			c0-0.462,0.042-1.176,0.084-1.722c-1.47-0.042-2.604-0.126-2.814-0.126c0,0-0.504-1.596,0.168-1.764
			c0.588-0.168,1.554-0.252,2.688-0.294c0.042-1.134,0.042-2.058,0.042-2.898c0-2.353-0.042-3.655,0.42-5.083
			c0.252-0.252,0.63-0.378,1.05-0.378c1.218,0,2.772,1.176,3.445,3.991c0.084,0.336,0.126,1.092,0.126,2.227
			c0,0.63,0,1.302-0.042,2.058c1.764,0.042,3.318,0.084,4.117-0.084c0.336,0.966,0.084,1.849-1.806,2.101
			c-0.63,0.126-1.513,0.21-2.479,0.252c-0.084,0.84-0.21,1.722-0.378,2.563c-0.378,3.36-0.588,6.259-0.588,8.653
			c0,2.73,0.336,4.747,1.092,5.335c1.68,1.344,4.705-1.428,5.209-4.369c0.462,0.042,1.176,0.588,1.176,1.764
			c0,0.336-0.084,0.756-0.252,1.302c-1.134,2.94-3.654,4.327-6.385,4.159C174.762,65.964,173.292,64.283,172.578,62.099z"/>
		<path style="fill:#3496F7;" d="M201.35,42.566c0-2.353-0.294-5.503-2.898-6.259c-1.723-0.504-5.041,1.05-4.369,4.159
			c0.504,2.269,3.864,4.705,6.931,7.058c2.016,1.512,3.991,2.982,5.293,4.369c1.68,1.848,2.73,3.907,2.73,6.049
			c0,1.596-0.63,3.403-1.849,4.915c-3.192,3.949-8.821,5.209-13.82,4.285c-3.823-0.798-6.343-2.982-6.175-6.049
			c0.21-3.697,3.781-6.175,6.385-5.965c1.05,0.084,1.428,0.714,0.882,1.302c-2.017,0.378-3.529,2.143-2.814,4.117
			c0.672,1.975,3.949,3.193,6.973,3.193c2.479,0,4.915-0.966,5.503-2.814c1.008-3.277-3.865-7.268-7.52-9.662
			c-3.444-2.31-8.149-6.385-7.351-11.174c0.798-4.537,5.041-6.469,8.863-6.469c3.823,0,9.662,2.982,7.436,8.065
			C204.794,43.112,202.442,42.734,201.35,42.566z"/>
		<path style="fill:#3496F7;" d="M231.339,58.99c0.756,0.21,1.218,1.05,0.966,2.185c-0.462,1.932-1.975,4.243-3.991,5.041
			c-2.646,0.966-5.587-1.05-6.469-3.234c-0.756-1.848-0.378-5.713-0.252-8.569s0.546-6.007-0.672-5.965
			c-0.966,0.042-2.688,3.865-4.117,8.023c-1.344,3.949-2.227,7.394-2.311,9.032c-0.084,1.68-3.444-0.294-3.78-3.024
			c-0.168-1.554-0.378-7.352-0.378-13.19c0-6.217,0.252-12.14,1.218-14.535c0.504-1.26,1.596-1.89,2.814-1.89
			c1.975,0,4.159,1.722,4.789,4.747c0.714,3.529-1.47,7.562-3.571,11.384c-0.126,1.554-0.21,3.486-0.42,6.217
			c0,0,2.227-7.855,4.201-9.284c0.588-0.462,1.344-0.672,2.101-0.672c2.058,0,4.243,1.554,4.831,3.36
			c0.63,2.017,0.294,4.915,0.084,7.771c-0.21,2.73-0.672,6.343,0.378,7.099h-0.042C228.147,64.409,230.583,61.553,231.339,58.99z
			 M216.847,38.785c-0.168-2.016-1.722-1.974-2.142-0.714c-0.168,0.588-0.378,1.597-0.378,3.739c0,2.185,0.21,4.831,0.21,4.789
			C215.712,44.288,217.057,41.263,216.847,38.785z"/>
		<path style="fill:#3496F7;" d="M245.492,57.73c-0.378,3.235-1.344,6.217-3.613,7.646c-2.898,1.806-8.527,0.126-10.292-3.066
			c-1.218-2.143-1.723-4.831-1.723-7.352c0-3.907,1.218-7.646,3.319-9.2c0.84-0.672,1.68-0.966,2.479-1.008
			c1.512-0.714,3.318-0.504,4.915,0.084c2.101,0.798,3.487,2.31,4.159,4.285c0.504,1.596,0.84,3.528,0.924,5.461
			c1.05-0.21,2.059-0.588,2.898-1.092c1.008-0.588,1.807-1.428,2.185-2.521c0.546,0.336,1.218,1.008,1.218,1.975
			c0,0.546-0.252,1.428-0.882,2.184C249.818,56.596,247.886,57.394,245.492,57.73z M235.956,60.293
			c0.63,2.227,1.722,3.571,2.898,3.024c0.504-0.21,1.008-0.882,1.47-1.89s0.84-2.311,1.134-3.655
			c-1.092-0.168-2.185-0.42-3.234-0.798c-1.05-0.378-2.017-0.924-2.941-1.639C235.284,57.184,235.536,58.906,235.956,60.293z
			 M241.921,54.79c0.168-1.428,0.084-3.445-0.42-4.705c-0.924-2.31-3.276-3.654-4.453-2.352c-1.344,1.512-0.588,3.865,1.176,5.587
			C239.19,54.244,240.703,54.748,241.921,54.79z"/>
		<path style="fill:#3496F7;" d="M252.252,65.04c-0.042,1.806-0.084,3.738-0.084,5.545c0,1.428,0.084,2.646,0.252,3.402
			c-1.344,0.462-3.613-0.462-4.117-2.479c-0.588-2.268-0.336-7.435-0.084-12.518c0.126-3.865,0.462-10.376,0.462-13.652
			c1.008-0.336,2.604,0.042,3.486,1.134c0.546,0.672,0.756,1.344,0.84,2.1c1.218-2.31,3.319-4.075,6.595-3.024
			c2.982,0.966,4.159,5.335,4.159,9.578c0,2.646-0.546,6.469-2.269,9.032c1.681-0.21,3.319-0.714,4.579-2.101
			c0.924-1.008,1.428-2.142,1.596-2.94c0.588,0.084,1.302,0.798,0.966,2.395c-0.462,2.395-2.311,3.655-3.949,4.369
			c-1.218,0.546-3.487,0.882-5.335,0.882c-1.008,0-2.101,0-3.15-0.084C254.352,66.51,253.134,65.796,252.252,65.04z M252.336,62.897
			c1.176,0.84,2.563,1.386,3.865,0.378c0.714-0.546,1.512-3.612,1.974-6.847c0.252-1.89,1.05-7.729-0.63-8.569
			c-1.974-0.924-4.159,2.73-4.663,6.427l-0.336,4.831C252.462,60.209,252.42,61.511,252.336,62.897z"/>
	</g>
	<g>
		<circle style="fill:#ED4C58;" cx="117.161" cy="57.15" r="7"/>
		<circle style="fill:#ED4C58;" cx="109.222" cy="48.483" r="2.667"/>
		<circle style="fill:#ED4C58;" cx="115.889" cy="45.483" r="2.667"/>
		<circle style="fill:#ED4C58;" cx="123.222" cy="46.483" r="2.667"/>
		<g>
			<circle style="fill:#ED4C58;" cx="284.951" cy="57.15" r="7"/>
			<circle style="fill:#ED4C58;" cx="292.889" cy="48.483" r="2.667"/>
			<circle style="fill:#ED4C58;" cx="286.223" cy="45.483" r="2.667"/>
			<circle style="fill:#ED4C58;" cx="278.889" cy="46.483" r="2.667"/>
		</g>
	</g>
	<rect x="58.616" y="323.816" style="fill:#F9C032;" width="158.667" height="6.667"/>
	<rect x="58.616" y="257.816" style="fill:#F9C032;" width="158.667" height="6.667"/>
	<path style="fill:#B3B3B3;" d="M72.617,208.816v49h65.666v-49L72.617,208.816L72.617,208.816z M135.284,223.483H120.95v-11.667
		h14.333v11.667H135.284z M89.95,240.816H75.617v-14.333H89.95V240.816z M92.95,226.483h25v14.333h-25V226.483z M117.95,243.816v11
		h-25v-11H117.95z M92.95,223.483v-11.667h25v11.667H92.95z M120.95,226.483h14.333v14.333H120.95V226.483z M89.95,211.816v11.667
		H75.617v-11.667L89.95,211.816L89.95,211.816z M75.617,243.816H89.95v11H75.617V243.816z M120.95,254.816v-11h14.333v11H120.95z"/>
	<path style="fill:#3496F7;" d="M137.949,323.816c-10.385,0-18.833-8.449-18.833-18.833s8.448-18.833,18.833-18.833
		s18.833,8.448,18.833,18.833S148.334,323.816,137.949,323.816z M137.949,289.15c-8.73,0-15.833,7.103-15.833,15.833
		s7.103,15.833,15.833,15.833s15.833-7.103,15.833-15.833S146.68,289.15,137.949,289.15z"/>
	<path style="fill:#ED4C58;" d="M190.127,323.816c-10.385,0-18.833-8.449-18.833-18.833s8.449-18.833,18.833-18.833
		s18.833,8.448,18.833,18.833S200.512,323.816,190.127,323.816z M190.127,289.15c-8.73,0-15.833,7.103-15.833,15.833
		s7.103,15.833,15.833,15.833s15.833-7.103,15.833-15.833S198.858,289.15,190.127,289.15z"/>
	<polygon style="fill:#ED4C58;" points="190.672,243.483 157.896,243.483 155.117,257.816 193.451,257.816 	"/>
	<polygon style="fill:#2278B2;" points="203.014,247.483 170.238,247.483 167.459,257.816 205.792,257.816 	"/>
	<path style="fill:#F9C032;" d="M328.128,249.041c-2.702-2.703-7.081-2.73-9.816-0.082l-8.019-8.019l8.014-8.014
		c2.731,2.648,7.117,2.622,9.827-0.077c2.725-2.725,2.725-7.167-0.003-9.908c-1.039-1.029-2.359-1.701-3.785-1.938
		c-0.237-1.429-0.911-2.747-1.942-3.778c-1.326-1.326-3.085-2.056-4.956-2.056c-0.002,0-0.005,0-0.007,0
		c-1.869,0.002-3.624,0.732-4.941,2.056c-2.696,2.696-2.727,7.064-0.076,9.816l-8.014,8.014l-8.019-8.019
		c1.271-1.312,1.969-3.036,1.969-4.867c0-1.87-0.728-3.628-2.05-4.95c-2.729-2.729-7.17-2.729-9.899,0
		c-1.032,1.032-1.707,2.351-1.946,3.782c-1.431,0.239-2.75,0.914-3.782,1.946c-2.729,2.729-2.729,7.17,0,9.899
		c2.701,2.702,7.081,2.729,9.817,0.082l8.013,8.013l-8.011,8.01c-2.736-2.638-7.117-2.612-9.823,0.083
		c-2.724,2.736-2.723,7.178,0.001,9.903c1.029,1.029,2.35,1.704,3.787,1.948c0.237,1.43,0.911,2.75,1.943,3.782
		c1.362,1.363,3.154,2.044,4.948,2.044c1.793,0,3.588-0.681,4.957-2.044c2.692-2.692,2.725-7.062,0.081-9.821l8.011-8.011
		l8.014,8.014c-2.647,2.735-2.62,7.115,0.082,9.816c1.365,1.365,3.157,2.047,4.95,2.047s3.585-0.683,4.95-2.047
		c1.032-1.032,1.707-2.352,1.946-3.782c1.431-0.239,2.75-0.914,3.782-1.946c1.322-1.322,2.05-3.08,2.05-4.95
		C330.179,252.121,329.451,250.363,328.128,249.041z M315.417,226.876l-0.921-0.692c-0.208-0.157-0.409-0.312-0.583-0.478
		c-1.948-1.948-1.948-5.118,0.001-7.067c0.941-0.945,2.194-1.467,3.528-1.468c0.001,0,0.003,0,0.005,0
		c1.336,0,2.594,0.522,3.542,1.47c0.882,0.882,1.396,2.059,1.448,3.314l0.038,0.92l0.92,0.038c1.254,0.052,2.437,0.567,3.323,1.446
		c1.947,1.956,1.948,5.131,0.003,7.076c-1.956,1.947-5.13,1.948-7.061,0.019c-0.183-0.191-0.337-0.393-0.494-0.601l-0.692-0.921
		l-9.595,9.595l-3.056-3.056L315.417,226.876z M293.37,255.045l0.968,0.685c0.201,0.142,0.394,0.291,0.56,0.449
		c1.947,1.956,1.948,5.13,0.003,7.076c-1.957,1.947-5.131,1.947-7.078,0.001c-0.881-0.882-1.396-2.059-1.448-3.314l-0.038-0.914
		l-0.914-0.044c-1.269-0.061-2.452-0.579-3.331-1.458c-1.946-1.947-1.946-5.122-0.001-7.075c1.952-1.942,5.128-1.943,7.061-0.019
		c0.175,0.184,0.325,0.377,0.467,0.578l0.685,0.968l9.621-9.621l3.066,3.066L293.37,255.045z M326.714,257.526
		c-0.882,0.883-2.061,1.399-3.319,1.453l-0.917,0.04l-0.04,0.917c-0.054,1.258-0.57,2.437-1.453,3.319
		c-1.95,1.948-5.122,1.948-7.071,0c-1.949-1.95-1.949-5.122,0-7.071c0.178-0.178,0.375-0.323,0.572-0.468l0.934-0.69l-25.097-25.097
		l-0.69,0.935c-0.145,0.197-0.29,0.394-0.467,0.572c-1.949,1.949-5.122,1.949-7.071,0c-1.949-1.95-1.949-5.122,0-7.071
		c0.883-0.883,2.062-1.399,3.319-1.453l0.917-0.04l0.04-0.917c0.054-1.258,0.57-2.437,1.453-3.319c1.949-1.949,5.122-1.949,7.071,0
		c0.944,0.944,1.464,2.2,1.464,3.536c0,1.335-0.52,2.591-1.464,3.536c-0.178,0.178-0.375,0.323-0.572,0.468l-0.934,0.69
		l25.096,25.096l0.69-0.934c0.145-0.196,0.29-0.394,0.468-0.572c1.949-1.949,5.122-1.949,7.071,0c0.944,0.944,1.464,2.2,1.464,3.535
		C328.179,255.326,327.659,256.582,326.714,257.526z"/>
	<g>
		<polygon style="fill:#F2F2F2;" points="82.48,288.167 85.772,280.133 89.063,288.167 		"/>
		<polygon style="fill:#F2F2F2;" points="89.063,321.799 85.772,329.833 82.48,321.799 		"/>
	</g>
	<g>
		<polygon style="fill:#F2F2F2;" points="95.335,290.765 103.343,287.411 99.99,295.42 		"/>
		<polygon style="fill:#F2F2F2;" points="76.208,319.201 68.2,322.555 71.553,314.547 		"/>
	</g>
	<g>
		<polygon style="fill:#F2F2F2;" points="102.588,301.692 110.622,304.983 102.588,308.275 		"/>
		<polygon style="fill:#F2F2F2;" points="68.955,308.275 60.921,304.983 68.955,301.692 		"/>
	</g>
	<g>
		<polygon style="fill:#F2F2F2;" points="99.99,314.547 103.343,322.555 95.335,319.201 		"/>
		<polygon style="fill:#F2F2F2;" points="71.553,295.42 68.2,287.411 76.208,290.765 		"/>
	</g>
	<path style="fill:#B3B3B3;" d="M85.772,323.816c-10.385,0-18.833-8.449-18.833-18.833s8.449-18.833,18.833-18.833
		s18.833,8.448,18.833,18.833S96.156,323.816,85.772,323.816z M85.772,289.15c-8.73,0-15.833,7.103-15.833,15.833
		s7.103,15.833,15.833,15.833s15.833-7.103,15.833-15.833S94.502,289.15,85.772,289.15z"/>
	<path style="fill:#ED4C58;" d="M116.117,208.817h-2v-2.83c0-2.116-1.721-3.837-3.837-3.837h-9.66c-2.115,0-3.836,1.721-3.836,3.837
		v2.83h-2v-2.83c0-3.218,2.618-5.837,5.836-5.837h9.66c3.218,0,5.837,2.619,5.837,5.837V208.817z"/>
	<g>
		<path style="fill:#F2F2F2;" d="M114.536,364.146c0-3.416-2.769-6.185-6.185-6.185s-6.185,2.769-6.185,6.185
			c0,0.249,0.029,0.491,0.058,0.732H76.83c0.029-0.241,0.058-0.483,0.058-0.732c0-3.416-2.769-6.185-6.185-6.185
			s-6.185,2.769-6.185,6.185c0,1.325,0.42,2.549,1.129,3.556c-0.709,1.006-1.129,2.231-1.129,3.556c0,3.416,2.769,6.185,6.185,6.185
			s6.185-2.769,6.185-6.185c0-0.249-0.029-0.491-0.058-0.732h25.394c-0.029,0.241-0.058,0.483-0.058,0.732
			c0,3.416,2.769,6.185,6.185,6.185s6.185-2.769,6.185-6.185c0-1.325-0.42-2.549-1.129-3.556
			C114.116,366.696,114.536,365.471,114.536,364.146z"/>
		<path style="fill:#F2F2F2;" d="M167.58,365.739c0-3.007-2.438-5.444-5.444-5.444s-5.444,2.438-5.444,5.444
			c0,0.219,0.025,0.432,0.051,0.645H134.39c0.025-0.213,0.051-0.425,0.051-0.645c0-3.007-2.438-5.444-5.444-5.444
			c-3.007,0-5.444,2.438-5.444,5.444c0,1.166,0.37,2.244,0.994,3.13c-0.624,0.886-0.994,1.964-0.994,3.13
			c0,3.007,2.437,5.444,5.444,5.444c3.007,0,5.444-2.438,5.444-5.444c0-0.219-0.025-0.432-0.051-0.644h22.352
			c-0.025,0.212-0.051,0.425-0.051,0.644c0,3.007,2.437,5.444,5.444,5.444s5.444-2.438,5.444-5.444c0-1.166-0.37-2.244-0.994-3.13
			C167.21,367.983,167.58,366.905,167.58,365.739z"/>
		<path style="fill:#F2F2F2;" d="M211.381,368.464c0-2.31-1.873-4.183-4.183-4.183s-4.183,1.873-4.183,4.183
			c0,0.169,0.02,0.332,0.039,0.495H185.88c0.02-0.163,0.039-0.327,0.039-0.495c0-2.31-1.873-4.183-4.183-4.183
			s-4.183,1.873-4.183,4.183c0,0.896,0.284,1.724,0.764,2.405c-0.48,0.681-0.764,1.509-0.764,2.405c0,2.31,1.873,4.183,4.183,4.183
			s4.183-1.873,4.183-4.183c0-0.168-0.02-0.332-0.039-0.495h17.174c-0.02,0.163-0.039,0.327-0.039,0.495
			c0,2.31,1.873,4.183,4.183,4.183s4.183-1.873,4.183-4.183c0-0.896-0.284-1.724-0.764-2.405
			C211.097,370.188,211.381,369.36,211.381,368.464z"/>
	</g>
	<path style="opacity:0.2;fill:#FCFAFA;enable-background:new    ;" d="M62.42,381.349h160.926V289.29
		C223.345,289.29,197.503,370.071,62.42,381.349z"/>
</g>
<g>
</g>
<g>
</g>
<g>
</g>
<g>
</g>
<g>
</g>
<g>
</g>
<g>
</g>
<g>
</g>
<g>
</g>
<g>
</g>
<g>
</g>
<g>
</g>
<g>
</g>
<g>
</g>
<g>
</g>
</svg>
