<svg id="Layer_1" enable-background="new 0 0 497 497" height="512" viewBox="0 0 497 497" width="512" xmlns="http://www.w3.org/2000/svg"><g><g><path d="m306.964 0h-116.928c-19.982 0-36.182 16.199-36.182 36.182v120.605l94.645 60 94.645-60v-120.605c.001-19.983-16.198-36.182-36.18-36.182z" fill="#c9aaf2"/><path d="m248.592 120.605v-84.423c0-19.983 16.199-36.182 36.181-36.182h-94.737c-19.983 0-36.182 16.199-36.182 36.182v120.605h130.919c-19.982 0-36.181-16.2-36.181-36.182z" fill="#b28ae4"/></g><g><path d="m417.3 497h-337.6c-16.569 0-30-13.431-30-30v-218.5h397.6v218.5c0 16.569-13.432 30-30 30z" fill="#ff8f71"/><path d="m149.1 437v-188.5h-99.4v218.5c0 16.568 13.431 30 30 30h129.4c-33.137 0-60-26.863-60-60z" fill="#ff6f4d"/></g><g><path d="m293.143 359.096c-16.568 0-30 13.432-30 30v37.904c0 16.568 13.432 30 30 30h154.157v-97.904z" fill="#7ce3ff"/><g fill="#b9f0ff"><path d="m314.922 437.754c2.92-2.931 2.92-7.681 0-10.61-2.929-2.927-7.665-2.945-10.61 0-2.92 2.93-2.92 7.68 0 10.61 2.949 2.927 7.669 2.916 10.61 0z"/><path d="m372.359 359.096-46.837 46.837c-2.92 2.92-2.92 7.68 0 10.6 2.928 2.928 7.666 2.944 10.61 0l57.444-57.437z"/><path d="m374.312 399.573-57.434 57.427h21.217l46.827-46.827c2.919-2.921 2.922-7.676 0-10.601-2.956-2.953-7.713-2.917-10.61.001z"/><path d="m395.521 378.353c-2.968 2.97-2.902 7.708 0 10.61 2.948 2.928 7.672 2.918 10.61 0 2.968-2.97 2.902-7.708 0-10.61-2.947-2.928-7.671-2.918-10.61 0z"/></g></g><g><g><path d="m124.7 359.096c-16.569 0-30 13.431-30 30v107.904h138.443v-107.904c0-16.569-13.431-30-30-30z" fill="#efedff"/><path d="m149.1 437v-77.904h-24.4c-16.569 0-30 13.431-30 30v107.904h114.4c-33.137 0-60-26.863-60-60z" fill="#d4d4ff"/></g><g><path d="m124.7 389.096h78.442v107.904h-78.442z" fill="#7ce3ff"/><path d="m149.1 437v-47.904h-24.4v107.904h78.442v-.296c-30.339-2.991-54.042-28.578-54.042-59.704z" fill="#2ed0fc"/></g></g><g><g><path d="m287.731 96.115-5.151-9.309c-6.818-12.322-19.868-19.974-33.989-19.974-13.808 0-26.526 7.32-33.464 19.216l-5.649 9.686c-9.892 17.073 2.433 38.766 22.49 38.766 6.28 0 12.134-2.223 16.623-5.923 4.489 3.7 10.153 5.923 16.434 5.923 19.816 0 32.241-21.265 22.706-38.385z" fill="#efedff"/><path d="m215.128 86.048-5.649 9.686c-9.892 17.073 2.433 38.766 22.49 38.766 6.28 0 12.134-2.223 16.623-5.923.349.288.719.577 1.082.846-.703-2.815-1.082-5.785-1.082-8.818v-53.773c-13.808 0-26.526 7.32-33.464 19.216z" fill="#d4d4ff"/></g><g><path d="m238.245 38.701c0 7.316-6.11 13.247-13.648 13.247s-13.648-5.931-13.648-13.247 6.11-16.439 13.648-16.439c7.537-.001 13.648 9.123 13.648 16.439z" fill="#d4d4ff"/><path d="m202.693 72.148c0 7.316-6.11 13.247-13.648 13.247s-13.648-5.931-13.648-13.247 6.11-16.439 13.648-16.439 13.648 9.123 13.648 16.439z" fill="#d4d4ff"/><g fill="#efedff"><path d="m321.603 72.148c0 7.316-6.11 13.247-13.648 13.247s-13.648-5.931-13.648-13.247 6.11-16.439 13.648-16.439 13.648 9.123 13.648 16.439z"/><path d="m285.243 38.701c0 7.316-6.11 13.247-13.648 13.247s-13.648-5.931-13.648-13.247 6.11-16.439 13.648-16.439 13.648 9.123 13.648 16.439z"/></g></g></g><g><g><path d="m130.358 156.787h-53.193c-18.848 0-36.094 10.599-44.608 27.414l-27.165 53.65c-3.545 7.001-5.392 14.738-5.392 22.586v21.363c0 27.448 22.251 49.7 49.7 49.7 26.084 0 49.7-20.445 49.7-50.919l49.7-32.081z" fill="#d34459"/><g fill="#ea5b70"><path d="m491.608 237.851-27.165-53.65c-8.514-16.815-25.76-27.414-44.608-27.414h-53.193l-38.995 5.703-44.926-5.703h-68.442l-65.179 91.713h49.7l49.7 50 49.7-50h99.4l49.7 50 49.7-38.063c0-7.848-1.847-15.585-5.392-22.586z"/><path d="m130.358 156.787-30.958 91.713h49.7z"/></g></g><g fill="#efedff"><path d="m99.4 248.5 49.7 40.3 49.7-40.3 15.479-91.713h-83.921z"/><path d="m282.721 156.787 15.479 91.713c0 2.155 49.7 50 49.7 50l49.7-50-30.958-91.713z"/></g></g><g><path d="m198.8 281.8c0 27.448 22.251 49.7 49.7 49.7 26.084 0 49.7-20.445 49.7-50.919v-32.081c-34.523 0-69.044 0-99.4 0z" fill="#d34459"/><path d="m198.8 248.5h-99.4v33.3c0 27.448 22.251 49.7 49.7 49.7 26.084 0 49.7-20.445 49.7-50.919z" fill="#d4d4ff"/><path d="m397.6 248.5h-99.4v33.3c0 27.448 22.251 49.7 49.7 49.7 27.448 0 49.7-22.251 49.7-49.7z" fill="#d4d4ff"/><path d="m397.6 248.5v33.3c0 27.448 22.251 49.7 49.7 49.7s49.7-22.251 49.7-49.7v-21.363c0-4.037-.498-8.043-1.455-11.937z" fill="#d34459"/></g></g></svg>