<svg height="512" viewBox="0 0 512 512" width="512" xmlns="http://www.w3.org/2000/svg"><g id="flat"><path d="m24 24h464v464h-464z" fill="#fbb540"/><path d="m24 64v96a32 32 0 0 0 32 32 32 32 0 0 0 32-32 32 32 0 0 0 32 32 32 32 0 0 0 32-32 32 32 0 0 0 32 32 32 32 0 0 0 32-32 32 32 0 0 0 32 32 32 32 0 0 0 32-32v-96z" fill="#ea9d2d"/><path d="m216 56h64a0 0 0 0 1 0 0v96a32 32 0 0 1 -32 32 32 32 0 0 1 -32-32v-96a0 0 0 0 1 0 0z" fill="#fdfefb"/><path d="m152 56h64a0 0 0 0 1 0 0v96a32 32 0 0 1 -32 32 32 32 0 0 1 -32-32v-96a0 0 0 0 1 0 0z" fill="#683b0d"/><path d="m88 56h64a0 0 0 0 1 0 0v96a32 32 0 0 1 -32 32 32 32 0 0 1 -32-32v-96a0 0 0 0 1 0 0z" fill="#fdfefb"/><path d="m24 56h64a0 0 0 0 1 0 0v96a32 32 0 0 1 -32 32 32 32 0 0 1 -32-32v-96a0 0 0 0 1 0 0z" fill="#683b0d"/><path d="m24 24h464v32h-464z" fill="#683b0d"/><path d="m24 40h464v16h-464z" fill="#55300b"/><path d="m456 124a28 28 0 0 0 -55.711-4h-32.578a28 28 0 1 0 -50.684 20 28 28 0 1 0 48.273 28h37.4a28 28 0 1 0 48.275-28 27.864 27.864 0 0 0 5.025-16z" fill="#ea9d2d"/><path d="m24 216h136v272h-136z" fill="#a8a8a8"/><path d="m32 224h128v264h-128z" fill="#cbcbcb"/><path d="m160 216h296v240h-296z" fill="#c38325"/><path d="m56 248h72v136h-72z" fill="#fbfbf9"/><path d="m56 416h72v40h-72z" fill="#fbfbf9"/><path d="m200 456h112v-144l-2.046-16.371a54.374 54.374 0 0 0 -53.954-47.629 54.374 54.374 0 0 0 -53.954 47.629l-2.046 16.371z" fill="#eaeae8"/><circle cx="240" cy="312" fill="#683b0d" r="8"/><circle cx="272" cy="312" fill="#683b0d" r="8"/><path d="m280 368a33.7 33.7 0 0 1 -24-9.931 33.7 33.7 0 0 1 -24 9.931 8 8 0 0 1 0-16 17.791 17.791 0 0 0 16-9.889l.845-1.69a8 8 0 0 1 14.31 0l.845 1.689a17.79 17.79 0 0 0 16 9.89 8 8 0 0 1 0 16z" fill="#cbcbcb"/><path d="m246.059 342.686 6.977 7.7a4 4 0 0 0 5.928 0l6.977-7.7a4 4 0 0 0 -2.964-6.686h-13.954a4 4 0 0 0 -2.964 6.686z" fill="#683b0d"/><path d="m224 264v26a30 30 0 0 1 -30 30h-2v-56a16 16 0 0 1 16-16 16 16 0 0 1 16 16z" fill="#683b0d"/><path d="m288 264v26a30 30 0 0 0 30 30h2v-56a16 16 0 0 0 -16-16 16 16 0 0 0 -16 16z" fill="#683b0d"/><path d="m264 456v-9.028a14.988 14.988 0 0 1 14.972-14.972h1.028a8 8 0 0 0 8-8v-16a8 8 0 0 0 -16 0v8.792a30.985 30.985 0 0 0 -16 9.436 30.985 30.985 0 0 0 -16-9.436v-8.792a8 8 0 0 0 -16 0v16a8 8 0 0 0 8 8h1.028a14.988 14.988 0 0 1 14.972 14.972v9.028z" fill="#cbcbcb"/><path d="m392 368a80 80 0 0 1 32 64v24h-32z" fill="#eaeae8"/><path d="m280 456h112v-136l-40 24-40-24v80a32 32 0 0 0 -32 32z" fill="#fd9226"/><g fill="#dc651e"><circle cx="336" cy="376" r="8"/><circle cx="368" cy="376" r="8"/><path d="m342.828 400.485 6.344 6.343a4 4 0 0 0 5.656 0l6.344-6.343a4 4 0 0 0 -2.829-6.828h-12.686a4 4 0 0 0 -2.829 6.828z"/><path d="m320 456v-8a8.009 8.009 0 0 0 -8-8 8 8 0 0 1 0-16 24.028 24.028 0 0 1 24 24v8z"/><path d="m352 456v-24a8 8 0 0 1 16 0v24z"/></g><path d="m160 216h296v8h-296z" fill="#97661d"/><path d="m44 332h240v8h-240z" fill="#97661d" transform="matrix(0 1 -1 0 500 172)"/><path d="m160 456h8v32h-8z" fill="#ea9d2d"/><path d="m456 116a28 28 0 0 0 -55.711-4h-32.578a28 28 0 1 0 -50.684 20 28 28 0 1 0 48.273 28h37.4a28 28 0 1 0 48.275-28 27.864 27.864 0 0 0 5.025-16z" fill="#fdfefb"/></g></svg>