<svg height="512" viewBox="0 0 58 58" width="512" xmlns="http://www.w3.org/2000/svg"><g id="Page-1" fill="none" fill-rule="evenodd"><g id="019---Pet-Shop" fill-rule="nonzero"><path id="Rectangle-path" d="m5 20h48v35h-48z" fill="#f0c419"/><path id="Shape" d="m38 20h-33v6h3c1.65685425 0 3-1.3431458 3-3 0 1.6568542 1.3431458 3 3 3h3c1.6568542 0 3-1.3431458 3-3 0 1.6568542 1.3431458 3 3 3h3c1.6568542 0 3-1.3431458 3-3 0 1.6568542 1.3431458 3 3 3h3c1.6568542 0 3-1.3431458 3-3 0 1.6568542 1.3431458 3 3 3h3c1.6568542 0 3-1.3431458 3-3 0 1.6568542 1.3431458 3 3 3h3v-6z" fill="#f29c1f"/><path id="Shape" d="m56 19.11v1.89c0 1.6568542-1.3431458 3-3 3h-3c-1.6568542 0-3-1.3431458-3-3v-2.09c-.0006517-.601074-.109032-1.1971653-.32-1.76l-.05-.15-4.52-14.0000026 4.34.0000026c1.5563583-.00176923 2.9724392.89937314 3.63 2.31l5.45 11.68c.3088775.664111.4692678 1.3875737.47 2.12z" fill="#e64c3c"/><path id="Shape" d="m47 18.91v2.09c0 1.6568542-1.3431458 3-3 3h-3c-1.6568542 0-3-1.3431458-3-3 0-14.75.02-15.76-.04-18h4.15l4.57 14.15c.210968.5628347.3193483 1.158926.32 1.76z" fill="#ecf0f1"/><path id="Shape" d="m38 17v4c0 1.6568542-1.3431458 3-3 3h-3c-1.6568542 0-3-1.3431458-3-3v-18h8.96c.05 2.02.04 3.04.04 14z" fill="#e64c3c"/><path id="Shape" d="m29 3v18c0 1.6568542-1.3431458 3-3 3h-3c-1.6568542 0-3-1.3431458-3-3 0-13.2-.02-15.62.04-18z" fill="#ecf0f1"/><path id="Shape" d="m20 17v4c0 1.6568542-1.3431458 3-3 3h-3c-1.6568542 0-3-1.3431458-3-3v-2.09c.0006517-.601074.109032-1.1971653.32-1.76l.06-.15 5.25-14h3.41c-.05 2.12-.04 4.27-.04 14z" fill="#e64c3c"/><path id="Shape" d="m16.63 2.9999974-5.31 14.1500026c-.210968.5628347-.3193483 1.158926-.32 1.76v2.09c0 1.6568542-1.34314575 3-3 3h-3c-1.65685425 0-3-1.3431458-3-3v-1.89c.00073216-.7324263.16112248-1.455889.47-2.12l5.45-11.68c.65756081-1.41062686 2.07364167-2.31176923 3.63-2.31z" fill="#ecf0f1"/><path id="Shape" d="m11.38 17-.06.15c-.210968.5628347-.3193483 1.158926-.32 1.76v.09h-5c-.55228475 0-1-.4477153-1-1s.44771525-1 1-1z" fill="#d1d4d1"/><path id="Rectangle-path" d="m20 17h9v2h-9z" fill="#d1d4d1"/><path id="Shape" d="m11.38 17h8.62v2h-9v-.09c.0006517-.601074.109032-1.1971653.32-1.76z" fill="#c03a2b"/><path id="Shape" d="m47 18.91v.09h-9v-2h8.63l.05.15c.210968.5628347.3193483 1.158926.32 1.76z" fill="#d1d4d1"/><path id="Rectangle-path" d="m29 17h9v2h-9z" fill="#c03a2b"/><path id="Shape" d="m53 18c0 .5522847-.4477153 1-1 1h-5v-.09c-.0006517-.601074-.109032-1.1971653-.32-1.76l-.05-.15h5.37c.5522847 0 1 .4477153 1 1z" fill="#c03a2b"/><path id="Shape" d="m27 30v25h-18v-25c.0032948-1.1032019.89679813-1.9967052 2-2h14c1.1032019.0032948 1.9967052.8967981 2 2z" fill="#3f5c6c"/><path id="Shape" d="m13 44c0 .5522847-.4477153 1-1 1h-3v-2h3c.5522847 0 1 .4477153 1 1z" fill="#547580"/><rect id="Rectangle-path" fill="#2fa8cc" height="8" rx="1" width="10" x="13" y="32"/><rect id="Rectangle-path" fill="#2fa8cc" height="18" rx="2" width="18" x="31" y="28"/><path id="Shape" d="m49 36v2h-8v8h-2v-8h-8v-2h8v-1c0-.5522847.4477153-1 1-1s1 .4477153 1 1v1z" fill="#547580"/><rect id="Rectangle-path" fill="#f0c419" height="18" rx="3" width="26" x="16"/><path id="Shape" d="m36 9c.9783882.00006108 1.8131996-.70771391 1.9732-1.67293065s-.4017842-1.90450027-1.3278609-2.22013527-1.9445615.08504483-2.4073391.94706592c-.3510761.60144823-1.0018171.963993-1.698.946h-7.08c-.6968912.0187311-1.3485761-.34391236-1.7-.946-.4628973-.86224274-1.4817603-1.26287473-2.4079701-.94684941-.9262097.31602532-1.487696 1.25587687-1.3270108 2.22123522.1606852.96535834.9963413 1.67265363 1.9749809 1.67161419-.9783882-.00006108-1.8131996.70771391-1.9732 1.6729307-.1600004.9652167.4017842 1.9045002 1.3278609 2.2201352s1.9445615-.0850448 2.4073391-.9470659c.3510761-.6014482 1.0018171-.963993 1.698-.946h7.08c.6968912-.0187311 1.3485761.3439124 1.7.946.4628973.8622427 1.4817603 1.2628747 2.4079701.9468494.9262097-.3160253 1.487696-1.2558769 1.3270108-2.2212352-.1606852-.96535835-.9963413-1.67265364-1.9749809-1.6716142z" fill="#ecf0f1"/><path id="Shape" d="m40 28v2c-.0032948 1.1032019-.8967981 1.9967052-2 2h-5c-1.1045695 0-2-.8954305-2-2s.8954305-2 2-2z" fill="#e64c3c"/><path id="Shape" d="m49 30c-.0032948 1.1032019-.8967981 1.9967052-2 2h-5c-1.1032019-.0032948-1.9967052-.8967981-2-2v-2h7c1.1032019.0032948 1.9967052.8967981 2 2z" fill="#c03a2b"/><path id="Shape" d="m2 54h54c1.1045695 0 2 .8954305 2 2v2h-58v-2c0-1.1045695.8954305-2 2-2z" fill="#95a5a5"/></g></g></svg>